<?xml version="1.0" encoding="utf-8" standalone="no"?>
<!DOCTYPE svg PUBLIC "-//W3C//DTD SVG 1.1//EN"
  "http://www.w3.org/Graphics/SVG/1.1/DTD/svg11.dtd">
<svg height="180pt" version="1.1" viewBox="0 0 720 180" width="720pt" xmlns="http://www.w3.org/2000/svg" xmlns:xlink="http://www.w3.org/1999/xlink">
 <metadata>
  <rdf:RDF xmlns:cc="http://creativecommons.org/ns#" xmlns:dc="http://purl.org/dc/elements/1.1/" xmlns:rdf="http://www.w3.org/1999/02/22-rdf-syntax-ns#">
   <cc:Work>
    <dc:type rdf:resource="http://purl.org/dc/dcmitype/StillImage"/>
    <dc:date>2021-05-10T00:29:08.390640</dc:date>
    <dc:format>image/svg+xml</dc:format>
    <dc:creator>
     <cc:Agent>
      <dc:title>Matplotlib v3.4.1, https://matplotlib.org/</dc:title>
     </cc:Agent>
    </dc:creator>
   </cc:Work>
  </rdf:RDF>
 </metadata>
 <defs>
  <style type="text/css">*{stroke-linecap:butt;stroke-linejoin:round;}</style>
 </defs>
 <g id="figure_1">
  <g id="patch_1">
   <path d="M 0 180 
L 720 180 
L 720 0 
L 0 0 
z
" style="fill:#ffffff;"/>
  </g>
  <g id="axes_1">
   <g id="patch_2">
    <path d="M 12.96 167.04 
L 707.04 167.04 
L 707.04 12.96 
L 12.96 12.96 
z
" style="fill:#ffffff;"/>
   </g>
   <g id="PolyCollection_1">
    <path clip-path="url(#pfa371c25fd)" d="M -1029.8075 90 
L -1026.419733 90 
L -1022.949333 90 
L -1019.478933 90 
L -1016.008533 90 
L -1012.538133 90 
L -1009.067733 90 
L -1005.597333 90 
L -1002.126933 90 
L -998.656533 90 
L -995.186133 90 
L -991.715733 90 
L -988.245333 90 
L -984.774933 90 
L -981.304533 90 
L -977.834133 90 
L -974.363733 90 
L -971.644678 90 
L -974.363733 88.33979 
L -977.834133 86.178953 
L -981.304533 84.540006 
L -984.774933 83.827448 
L -988.245333 84.124498 
L -991.715733 85.144911 
L -995.186133 86.333676 
L -998.656533 87.088895 
L -1002.126933 87.016776 
L -1005.597333 86.107255 
L -1009.067733 84.747458 
L -1012.538133 83.562451 
L -1016.008533 83.152139 
L -1019.478933 83.840114 
L -1022.949333 85.543571 
L -1026.419733 87.818035 
z
" style="fill:#e63333;stroke:#e63333;"/>
    <path clip-path="url(#pfa371c25fd)" d="M -951.146965 90 
L -950.070933 90 
L -946.600533 90 
L -943.130133 90 
L -940.39535 90 
L -943.130133 89.485679 
L -946.600533 89.319121 
L -950.070933 89.726688 
z
" style="fill:#e63333;stroke:#e63333;"/>
    <path clip-path="url(#pfa371c25fd)" d="M -908.801103 90 
L -908.426133 90 
L -904.955733 90 
L -901.485333 90 
L -898.014933 90 
L -894.544533 90 
L -891.074133 90 
L -887.603733 90 
L -884.133333 90 
L -880.662933 90 
L -877.192533 90 
L -873.722133 90 
L -870.251733 90 
L -866.781333 90 
L -863.310933 90 
L -859.887413 90 
L -863.310933 88.512917 
L -866.781333 87.595539 
L -870.251733 87.438728 
L -873.722133 87.905853 
L -877.192533 88.64701 
L -880.662933 89.270575 
L -884.133333 89.510552 
L -887.603733 89.319149 
L -891.074133 88.8557 
L -894.544533 88.391869 
L -898.014933 88.186276 
L -901.485333 88.386425 
L -904.955733 88.993599 
L -908.426133 89.890627 
z
" style="fill:#e63333;stroke:#e63333;"/>
    <path clip-path="url(#pfa371c25fd)" d="M -837.589739 90 
L -835.547733 90 
L -832.077333 90 
L -830.41022 90 
L -832.077333 89.537056 
L -835.547733 89.499342 
z
" style="fill:#e63333;stroke:#e63333;"/>
    <path clip-path="url(#pfa371c25fd)" d="M -805.262276 90 
L -804.314133 90 
L -800.843733 90 
L -797.373333 90 
L -793.902933 90 
L -790.432533 90 
L -786.962133 90 
L -783.491733 90 
L -780.021333 90 
L -778.934924 90 
L -780.021333 89.655292 
L -783.491733 88.647328 
L -786.962133 87.802683 
L -790.432533 87.18993 
L -793.902933 86.924603 
L -797.373333 87.163736 
L -800.843733 88.030332 
L -804.314133 89.501028 
z
" style="fill:#e63333;stroke:#e63333;"/>
    <path clip-path="url(#pfa371c25fd)" d="M -753.909455 90 
L -752.258133 90 
L -748.787733 90 
L -745.317333 90 
L -741.846933 90 
L -738.376533 90 
L -734.906133 90 
L -731.435733 90 
L -727.965333 90 
L -724.494933 90 
L -721.024533 90 
L -717.554133 90 
L -714.083733 90 
L -710.613333 90 
L -707.142933 90 
L -704.895957 90 
L -707.142933 89.611886 
L -710.613333 88.986521 
L -714.083733 88.55167 
L -717.554133 88.394294 
L -721.024533 88.445421 
L -724.494933 88.530252 
L -727.965333 88.466449 
L -731.435733 88.163208 
L -734.906133 87.676801 
L -738.376533 87.199263 
L -741.846933 86.985295 
L -745.317333 87.247174 
L -748.787733 88.0601 
L -752.258133 89.316931 
z
" style="fill:#e63333;stroke:#e63333;"/>
    <path clip-path="url(#pfa371c25fd)" d="M -693.894242 90 
L -693.261333 90 
L -689.790933 90 
L -686.320533 90 
L -682.850133 90 
L -679.379733 90 
L -677.103124 90 
L -679.379733 89.209733 
L -682.850133 88.602894 
L -686.320533 88.657293 
L -689.790933 89.200967 
L -693.261333 89.905277 
z
" style="fill:#e63333;stroke:#e63333;"/>
    <path clip-path="url(#pfa371c25fd)" d="M -645.380043 90 
L -644.675733 90 
L -641.205333 90 
L -637.734933 90 
L -634.264533 90 
L -630.794133 90 
L -629.253564 90 
L -630.794133 89.684673 
L -634.264533 89.189837 
L -637.734933 89.000592 
L -641.205333 89.191406 
L -644.675733 89.799235 
z
" style="fill:#e63333;stroke:#e63333;"/>
    <path clip-path="url(#pfa371c25fd)" d="M -599.403086 90 
L -596.090133 90 
L -592.619733 90 
L -589.149333 90 
L -589.038403 90 
L -589.149333 89.973218 
L -592.619733 89.458355 
L -596.090133 89.469363 
z
" style="fill:#e63333;stroke:#e63333;"/>
    <path clip-path="url(#pfa371c25fd)" d="M -544.213653 90 
L -544.034133 90 
L -540.563733 90 
L -537.093333 90 
L -533.622933 90 
L -530.152533 90 
L -526.682133 90 
L -523.211733 90 
L -519.741333 90 
L -516.270933 90 
L -512.800533 90 
L -509.330133 90 
L -505.859733 90 
L -503.158505 90 
L -505.859733 89.323463 
L -509.330133 88.401033 
L -512.800533 87.301766 
L -516.270933 86.013752 
L -519.741333 84.656771 
L -523.211733 83.451462 
L -526.682133 82.663857 
L -530.152533 82.544256 
L -533.622933 83.264905 
L -537.093333 84.858428 
L -540.563733 87.171903 
L -544.034133 89.864963 
z
" style="fill:#e63333;stroke:#e63333;"/>
    <path clip-path="url(#pfa371c25fd)" d="M -438.729957 90 
L -436.451733 90 
L -432.981333 90 
L -429.510933 90 
L -426.040533 90 
L -422.570133 90 
L -420.472366 90 
L -422.570133 88.712851 
L -426.040533 86.987312 
L -429.510933 86.153503 
L -432.981333 86.554449 
L -436.451733 88.244576 
z
" style="fill:#e63333;stroke:#e63333;"/>
    <path clip-path="url(#pfa371c25fd)" d="M -365.152826 90 
L -363.573333 90 
L -360.102933 90 
L -356.632533 90 
L -353.162133 90 
L -349.691733 90 
L -346.221333 90 
L -342.750933 90 
L -339.280533 90 
L -336.889616 90 
L -339.280533 89.130544 
L -342.750933 87.743008 
L -346.221333 86.538499 
L -349.691733 85.779758 
L -353.162133 85.655735 
L -356.632533 86.24847 
L -360.102933 87.497166 
L -363.573333 89.184808 
z
" style="fill:#e63333;stroke:#e63333;"/>
    <path clip-path="url(#pfa371c25fd)" d="M -323.277542 90 
L -321.928533 90 
L -318.458133 90 
L -314.987733 90 
L -311.517333 90 
L -308.046933 90 
L -304.576533 90 
L -302.049302 90 
L -304.576533 88.762668 
L -308.046933 87.348291 
L -311.517333 86.708248 
L -314.987733 87.024842 
L -318.458133 88.114922 
L -321.928533 89.528042 
z
" style="fill:#e63333;stroke:#e63333;"/>
    <path clip-path="url(#pfa371c25fd)" d="M -281.303627 90 
L -280.283733 90 
L -279.322035 90 
L -280.283733 89.866978 
z
" style="fill:#e63333;stroke:#e63333;"/>
    <path clip-path="url(#pfa371c25fd)" d="M -185.593956 90 
L -183.112533 90 
L -179.642133 90 
L -176.171733 90 
L -172.701333 90 
L -169.230933 90 
L -165.760533 90 
L -162.290133 90 
L -158.819733 90 
L -155.349333 90 
L -151.878933 90 
L -148.408533 90 
L -144.938133 90 
L -141.467733 90 
L -137.997333 90 
L -134.526933 90 
L -133.983252 90 
L -134.526933 89.852573 
L -137.997333 89.53547 
L -141.467733 89.619351 
L -144.938133 89.763458 
L -148.408533 89.637696 
L -151.878933 89.02568 
L -155.349333 87.882554 
L -158.819733 86.348242 
L -162.290133 84.721847 
L -165.760533 83.397441 
L -169.230933 82.761534 
L -172.701333 83.068834 
L -176.171733 84.337558 
L -179.642133 86.316787 
L -183.112533 88.558023 
z
" style="fill:#e63333;stroke:#e63333;"/>
    <path clip-path="url(#pfa371c25fd)" d="M -60.26946 90 
L -58.178133 90 
L -54.707733 90 
L -51.237333 90 
L -47.766933 90 
L -44.296533 90 
L -40.826133 90 
L -37.355733 90 
L -33.885333 90 
L -30.414933 90 
L -26.944533 90 
L -23.474133 90 
L -20.003733 90 
L -16.533333 90 
L -15.949274 90 
L -16.533333 89.708868 
L -20.003733 88.174899 
L -23.474133 87.633413 
L -26.944533 88.110338 
L -30.414933 89.101721 
L -33.885333 89.90859 
L -37.355733 89.947313 
L -40.826133 88.979344 
L -44.296533 87.230688 
L -47.766933 85.366741 
L -51.237333 84.29801 
L -54.707733 84.849442 
L -58.178133 87.40838 
z
" style="fill:#e63333;stroke:#e63333;"/>
    <path clip-path="url(#pfa371c25fd)" d="M -7.397187 90 
L -6.122133 90 
L -2.651733 90 
L 0.818667 90 
L 4.289067 90 
L 7.759467 90 
L 11.229867 90 
L 14.700267 90 
L 18.170667 90 
L 21.641067 90 
L 25.111467 90 
L 28.581867 90 
L 32.052267 90 
L 35.522667 90 
L 38.993067 90 
L 42.463467 90 
L 45.933867 90 
L 49.404267 90 
L 52.874667 90 
L 56.345067 90 
L 59.815467 90 
L 63.285867 90 
L 64.448403 90 
L 63.285867 89.80573 
L 59.815467 88.823735 
L 56.345067 87.66384 
L 52.874667 86.771744 
L 49.404267 86.6261 
L 45.933867 87.374205 
L 42.463467 88.452512 
L 38.993067 88.461649 
L 35.522667 85.514701 
L 32.052267 78.047135 
L 28.581867 65.774841 
L 25.111467 50.300615 
L 21.641067 34.948167 
L 18.170667 23.750036 
L 14.700267 19.963636 
L 11.229867 24.782853 
L 7.759467 36.860274 
L 4.289067 52.863907 
L 0.818667 68.780461 
L -2.651733 81.339505 
L -6.122133 88.945175 
z
" style="fill:#e63333;stroke:#e63333;"/>
    <path clip-path="url(#pfa371c25fd)" d="M 110.717508 90 
L 111.871467 90 
L 115.341867 90 
L 118.812267 90 
L 122.282667 90 
L 125.753067 90 
L 129.223467 90 
L 132.693867 90 
L 136.164267 90 
L 139.634667 90 
L 143.105067 90 
L 146.335996 90 
L 143.105067 86.018971 
L 139.634667 80.210814 
L 136.164267 73.800466 
L 132.693867 68.047472 
L 129.223467 64.227599 
L 125.753067 63.319326 
L 122.282667 65.756341 
L 118.812267 71.290583 
L 115.341867 78.999808 
L 111.871467 87.462908 
z
" style="fill:#e63333;stroke:#e63333;"/>
    <path clip-path="url(#pfa371c25fd)" d="M 219.365555 90 
L 219.453867 90 
L 222.924267 90 
L 226.394667 90 
L 229.865067 90 
L 233.335467 90 
L 236.805867 90 
L 237.310044 90 
L 236.805867 89.375937 
L 233.335467 85.379223 
L 229.865067 83.096191 
L 226.394667 83.332908 
L 222.924267 85.948404 
L 219.453867 89.903439 
z
" style="fill:#e63333;stroke:#e63333;"/>
    <path clip-path="url(#pfa371c25fd)" d="M 257.268563 90 
L 257.628267 90 
L 261.098667 90 
L 264.569067 90 
L 268.039467 90 
L 271.509867 90 
L 274.980267 90 
L 275.503628 90 
L 274.980267 89.453968 
L 271.509867 86.353209 
L 268.039467 84.540557 
L 264.569067 84.519235 
L 261.098667 86.358254 
L 257.628267 89.610959 
z
" style="fill:#e63333;stroke:#e63333;"/>
    <path clip-path="url(#pfa371c25fd)" d="M 324.54064 90 
L 327.036267 90 
L 330.506667 90 
L 333.977067 90 
L 337.447467 90 
L 340.917867 90 
L 344.388267 90 
L 347.858667 90 
L 351.329067 90 
L 354.799467 90 
L 358.269867 90 
L 361.740267 90 
L 365.210667 90 
L 368.681067 90 
L 369.582871 90 
L 368.681067 89.70274 
L 365.210667 88.572675 
L 361.740267 87.285452 
L 358.269867 85.732817 
L 354.799467 83.937162 
L 351.329067 82.080965 
L 347.858667 80.477986 
L 344.388267 79.48844 
L 340.917867 79.407753 
L 337.447467 80.37222 
L 333.977067 82.314015 
L 330.506667 84.972573 
L 327.036267 87.950551 
z
" style="fill:#e63333;stroke:#e63333;"/>
    <path clip-path="url(#pfa371c25fd)" d="M 414.18792 90 
L 417.266667 90 
L 420.737067 90 
L 424.207467 90 
L 427.677867 90 
L 431.148267 90 
L 434.618667 90 
L 438.089067 90 
L 441.559467 90 
L 445.029867 90 
L 448.500267 90 
L 449.67905 90 
L 448.500267 89.313917 
L 445.029867 86.861629 
L 441.559467 84.242587 
L 438.089067 81.894487 
L 434.618667 80.289832 
L 431.148267 79.77146 
L 427.677867 80.441066 
L 424.207467 82.150807 
L 420.737067 84.590667 
L 417.266667 87.413707 
z
" style="fill:#e63333;stroke:#e63333;"/>
    <path clip-path="url(#pfa371c25fd)" d="M 486.237098 90 
L 486.674667 90 
L 490.145067 90 
L 493.615467 90 
L 497.085867 90 
L 500.030122 90 
L 497.085867 89.041854 
L 493.615467 88.446143 
L 490.145067 88.686478 
L 486.674667 89.786878 
z
" style="fill:#e63333;stroke:#e63333;"/>
    <path clip-path="url(#pfa371c25fd)" d="M 521.912979 90 
L 524.849067 90 
L 528.319467 90 
L 531.789867 90 
L 535.260267 90 
L 538.378769 90 
L 535.260267 89.023113 
L 531.789867 88.493023 
L 528.319467 88.566378 
L 524.849067 89.176207 
z
" style="fill:#e63333;stroke:#e63333;"/>
    <path clip-path="url(#pfa371c25fd)" d="M 646.365311 90 
L 649.783467 90 
L 653.253867 90 
L 655.401385 90 
L 653.253867 89.50661 
L 649.783467 89.299221 
z
" style="fill:#e63333;stroke:#e63333;"/>
    <path clip-path="url(#pfa371c25fd)" d="M 688.112713 90 
L 691.428267 90 
L 694.898667 90 
L 698.369067 90 
L 701.839467 90 
L 705.309867 90 
L 708.780267 90 
L 712.250667 90 
L 715.721067 90 
L 719.191467 90 
L 722.661867 90 
L 726.132267 90 
L 728.184406 90 
L 726.132267 88.65292 
L 722.661867 86.358587 
L 719.191467 84.490488 
L 715.721067 83.339832 
L 712.250667 83.014421 
L 708.780267 83.462075 
L 705.309867 84.513427 
L 701.839467 85.921593 
L 698.369067 87.400799 
L 694.898667 88.678574 
L 691.428267 89.565492 
z
" style="fill:#e63333;stroke:#e63333;"/>
    <path clip-path="url(#pfa371c25fd)" d="M 804.502529 90 
L 805.951467 90 
L 809.421867 90 
L 812.892267 90 
L 816.362667 90 
L 819.833067 90 
L 823.303467 90 
L 826.773867 90 
L 830.244267 90 
L 833.714667 90 
L 837.185067 90 
L 840.655467 90 
L 844.125867 90 
L 847.596267 90 
L 849.337712 90 
L 847.596267 89.227675 
L 844.125867 87.188537 
L 840.655467 84.72857 
L 837.185067 82.069871 
L 833.714667 79.544345 
L 830.244267 77.527776 
L 826.773867 76.361485 
L 823.303467 76.280816 
L 819.833067 77.363573 
L 816.362667 79.505299 
L 812.892267 82.425601 
L 809.421867 85.709884 
L 805.951467 88.889061 
z
" style="fill:#e63333;stroke:#e63333;"/>
    <path clip-path="url(#pfa371c25fd)" d="M 882.114646 90 
L 882.300267 90 
L 885.770667 90 
L 889.241067 90 
L 892.711467 90 
L 896.181867 90 
L 899.652267 90 
L 903.122667 90 
L 904.180261 90 
L 903.122667 89.363163 
L 899.652267 87.597829 
L 896.181867 86.499755 
L 892.711467 86.277407 
L 889.241067 86.934484 
L 885.770667 88.264187 
L 882.300267 89.915023 
z
" style="fill:#e63333;stroke:#e63333;"/>
    <path clip-path="url(#pfa371c25fd)" d="M 966.301712 90 
L 969.060267 90 
L 972.530667 90 
L 976.001067 90 
L 977.852494 90 
L 976.001067 89.752828 
L 972.530667 89.540858 
L 969.060267 89.677402 
z
" style="fill:#e63333;stroke:#e63333;"/>
    <path clip-path="url(#pfa371c25fd)" d="M 990.728783 90 
L 993.353067 90 
L 996.823467 90 
L 1000.293867 90 
L 1003.764267 90 
L 1007.234667 90 
L 1010.705067 90 
L 1014.175467 90 
L 1017.645867 90 
L 1021.116267 90 
L 1024.586667 90 
L 1028.057067 90 
L 1028.738072 90 
L 1028.057067 89.77767 
L 1024.586667 87.807009 
L 1021.116267 85.35586 
L 1017.645867 82.979116 
L 1014.175467 81.252595 
L 1010.705067 80.591125 
L 1007.234667 81.127302 
L 1003.764267 82.6874 
L 1000.293867 84.862509 
L 996.823467 87.141367 
L 993.353067 89.057037 
z
" style="fill:#e63333;stroke:#e63333;"/>
    <path clip-path="url(#pfa371c25fd)" d="M 1041.847025 90 
L 1041.938667 90 
L 1045.409067 90 
L 1048.879467 90 
L 1052.349867 90 
L 1055.820267 90 
L 1059.290667 90 
L 1062.761067 90 
L 1066.231467 90 
L 1069.701867 90 
L 1073.172267 90 
L 1076.642667 90 
L 1080.113067 90 
L 1081.238647 90 
L 1080.113067 89.374752 
L 1076.642667 87.552714 
L 1073.172267 86.343377 
L 1069.701867 85.972042 
L 1066.231467 86.322691 
L 1062.761067 87.047129 
L 1059.290667 87.76957 
L 1055.820267 88.272473 
L 1052.349867 88.570898 
L 1048.879467 88.848584 
L 1045.409067 89.301852 
L 1041.938667 89.980681 
z
" style="fill:#e63333;stroke:#e63333;"/>
    <path clip-path="url(#pfa371c25fd)" d="M 1123.327675 90 
L 1125.228267 90 
L 1128.698667 90 
L 1132.169067 90 
L 1135.639467 90 
L 1139.109867 90 
L 1142.580267 90 
L 1146.050667 90 
L 1149.521067 90 
L 1152.991467 90 
L 1156.461867 90 
L 1159.932267 90 
L 1163.402667 90 
L 1166.873067 90 
L 1170.343467 90 
L 1173.813867 90 
L 1177.284267 90 
L 1180.754667 90 
L 1184.225067 90 
L 1187.695467 90 
L 1191.165867 90 
L 1194.636267 90 
L 1198.106667 90 
L 1201.577067 90 
L 1205.047467 90 
L 1208.517867 90 
L 1211.988267 90 
L 1215.458667 90 
L 1218.929067 90 
L 1222.399467 90 
L 1225.869867 90 
L 1229.340267 90 
L 1232.810667 90 
L 1236.281067 90 
L 1239.751467 90 
L 1243.221867 90 
L 1246.692267 90 
L 1250.162667 90 
L 1253.633067 90 
L 1253.843836 90 
L 1253.633067 89.882822 
L 1250.162667 87.953504 
L 1246.692267 85.933005 
L 1243.221867 83.808226 
L 1239.751467 81.730191 
L 1236.281067 80.008364 
L 1232.810667 79.002932 
L 1229.340267 78.961348 
L 1225.869867 79.882569 
L 1222.399467 81.485805 
L 1218.929067 83.308235 
L 1215.458667 84.885508 
L 1211.988267 85.922783 
L 1208.517867 86.372543 
L 1205.047467 86.392696 
L 1201.577067 86.226145 
L 1198.106667 86.07784 
L 1194.636267 86.049738 
L 1191.165867 86.146469 
L 1187.695467 86.321178 
L 1184.225067 86.518819 
L 1180.754667 86.693658 
L 1177.284267 86.808128 
L 1173.813867 86.836543 
L 1170.343467 86.787287 
L 1166.873067 86.729928 
L 1163.402667 86.794021 
L 1159.932267 87.116157 
L 1156.461867 87.750468 
L 1152.991467 88.597302 
L 1149.521067 89.410475 
L 1146.050667 89.902515 
L 1142.580267 89.901854 
L 1139.109867 89.470461 
L 1135.639467 88.90059 
L 1132.169067 88.575922 
L 1128.698667 88.766664 
L 1125.228267 89.475974 
z
" style="fill:#e63333;stroke:#e63333;"/>
    <path clip-path="url(#pfa371c25fd)" d="M 1320.30678 90 
L 1323.041067 90 
L 1326.511467 90 
L 1329.981867 90 
L 1333.452267 90 
L 1336.922667 90 
L 1340.393067 90 
L 1343.863467 90 
L 1347.333867 90 
L 1350.804267 90 
L 1354.274667 90 
L 1357.745067 90 
L 1361.215467 90 
L 1364.685867 90 
L 1368.156267 90 
L 1371.626667 90 
L 1373.243369 90 
L 1371.626667 88.566614 
L 1368.156267 85.208399 
L 1364.685867 82.28994 
L 1361.215467 80.342832 
L 1357.745067 79.534885 
L 1354.274667 79.656314 
L 1350.804267 80.265966 
L 1347.333867 80.91945 
L 1343.863467 81.366981 
L 1340.393067 81.633887 
L 1336.922667 81.962376 
L 1333.452267 82.66061 
L 1329.981867 83.940762 
L 1326.511467 85.81929 
L 1323.041067 88.111926 
z
" style="fill:#e63333;stroke:#e63333;"/>
    <path clip-path="url(#pfa371c25fd)" d="M 1395.476423 90 
L 1395.919467 90 
L 1399.389867 90 
L 1402.860267 90 
L 1406.330667 90 
L 1409.801067 90 
L 1413.271467 90 
L 1416.741867 90 
L 1420.212267 90 
L 1423.682667 90 
L 1427.153067 90 
L 1430.623467 90 
L 1434.093867 90 
L 1437.564267 90 
L 1441.034667 90 
L 1444.505067 90 
L 1447.975467 90 
L 1451.445867 90 
L 1454.567095 90 
L 1451.445867 87.843276 
L 1447.975467 85.429175 
L 1444.505067 83.37873 
L 1441.034667 81.976462 
L 1437.564267 81.383153 
L 1434.093867 81.625927 
L 1430.623467 82.595202 
L 1427.153067 84.055599 
L 1423.682667 85.686012 
L 1420.212267 87.152362 
L 1416.741867 88.195792 
L 1413.271467 88.706709 
L 1409.801067 88.75851 
L 1406.330667 88.588068 
L 1402.860267 88.524064 
L 1399.389867 88.876547 
L 1395.919467 89.814278 
z
" style="fill:#e63333;stroke:#e63333;"/>
    <path clip-path="url(#pfa371c25fd)" d="M 1529.046798 90 
L 1531.265067 90 
L 1534.735467 90 
L 1538.205867 90 
L 1541.676267 90 
L 1545.146667 90 
L 1548.617067 90 
L 1552.087467 90 
L 1555.557867 90 
L 1559.028267 90 
L 1560.047559 90 
L 1559.028267 89.322583 
L 1555.557867 86.733109 
L 1552.087467 84.629419 
L 1548.617067 83.584016 
L 1545.146667 83.774494 
L 1541.676267 84.960488 
L 1538.205867 86.632669 
L 1534.735467 88.254395 
L 1531.265067 89.484748 
z
" style="fill:#e63333;stroke:#e63333;"/>
    <path clip-path="url(#pfa371c25fd)" d="M 1576.778712 90 
L 1579.850667 90 
L 1583.321067 90 
L 1586.791467 90 
L 1590.261867 90 
L 1593.732267 90 
L 1597.202667 90 
L 1599.981845 90 
L 1597.202667 89.150699 
L 1593.732267 88.029489 
L 1590.261867 87.120284 
L 1586.791467 86.755856 
L 1583.321067 87.185478 
L 1579.850667 88.429954 
z
" style="fill:#e63333;stroke:#e63333;"/>
    <path clip-path="url(#pfa371c25fd)" d="M 1640.020444 90 
L 1642.317867 90 
L 1645.788267 90 
L 1649.258667 90 
L 1652.729067 90 
L 1656.199467 90 
L 1659.669867 90 
L 1663.140267 90 
L 1666.610667 90 
L 1670.081067 90 
L 1671.772142 90 
L 1670.081067 88.893486 
L 1666.610667 86.245615 
L 1663.140267 83.507701 
L 1659.669867 81.154265 
L 1656.199467 79.732749 
L 1652.729067 79.684533 
L 1649.258667 81.172291 
L 1645.788267 83.987686 
L 1642.317867 87.584564 
z
" style="fill:#e63333;stroke:#e63333;"/>
    <path clip-path="url(#pfa371c25fd)" d="M 1708.578364 90 
L 1711.725867 90 
L 1715.196267 90 
L 1718.666667 90 
L 1719.170776 90 
L 1718.666667 89.763242 
L 1715.196267 88.94282 
L 1711.725867 89.084746 
z
" style="fill:#e63333;stroke:#e63333;"/>
    <path clip-path="url(#pfa371c25fd)" d="M 1752.598358 90 
L 1753.370667 90 
L 1756.841067 90 
L 1760.311467 90 
L 1763.781867 90 
L 1767.252267 90 
L 1770.722667 90 
L 1774.193067 90 
L 1777.663467 90 
L 1781.133867 90 
L 1784.604267 90 
L 1788.074667 90 
L 1790.925376 90 
L 1788.074667 88.292753 
L 1784.604267 85.963289 
L 1781.133867 83.883454 
L 1777.663467 82.451428 
L 1774.193067 81.85457 
L 1770.722667 82.05726 
L 1767.252267 82.881486 
L 1763.781867 84.128185 
L 1760.311467 85.669325 
L 1756.841067 87.46465 
L 1753.370667 89.505377 
z
" style="fill:#e63333;stroke:#e63333;"/>
    <path clip-path="url(#pfa371c25fd)" d="M 1807.15942 90 
L 1808.897067 90 
L 1812.367467 90 
L 1815.837867 90 
L 1819.308267 90 
L 1822.778667 90 
L 1826.249067 90 
L 1828.746122 90 
L 1826.249067 89.369771 
L 1822.778667 88.473629 
L 1819.308267 87.852123 
L 1815.837867 87.754989 
L 1812.367467 88.288322 
L 1808.897067 89.352678 
z
" style="fill:#e63333;stroke:#e63333;"/>
    <path clip-path="url(#pfa371c25fd)" d="M 1878.072115 90 
L 1878.305067 90 
L 1881.775467 90 
L 1885.245867 90 
L 1888.716267 90 
L 1892.186667 90 
L 1895.657067 90 
L 1899.127467 90 
L 1902.597867 90 
L 1904.728593 90 
L 1902.597867 88.416374 
L 1899.127467 86.120624 
L 1895.657067 84.650608 
L 1892.186667 84.285541 
L 1888.716267 84.9827 
L 1885.245867 86.438182 
L 1881.775467 88.220421 
L 1878.305067 89.912604 
z
" style="fill:#e63333;stroke:#e63333;"/>
    <path clip-path="url(#pfa371c25fd)" d="M 1965.811226 90 
L 1968.535467 90 
L 1972.005867 90 
L 1975.476267 90 
L 1978.946667 90 
L 1981.96161 90 
L 1978.946667 89.153681 
L 1975.476267 88.296243 
L 1972.005867 88.026881 
L 1968.535467 88.687461 
z
" style="fill:#e63333;stroke:#e63333;"/>
    <path clip-path="url(#pfa371c25fd)" d="M 1994.880027 90 
L 1996.298667 90 
L 1999.769067 90 
L 2003.239467 90 
L 2006.709867 90 
L 2010.180267 90 
L 2011.807104 90 
L 2010.180267 89.531185 
L 2006.709867 88.8251 
L 2003.239467 88.630354 
L 1999.769067 88.977709 
L 1996.298667 89.691325 
z
" style="fill:#e63333;stroke:#e63333;"/>
    <path clip-path="url(#pfa371c25fd)" d="M 2032.767132 90 
L 2034.473067 90 
L 2037.943467 90 
L 2041.413867 90 
L 2044.884267 90 
L 2048.354667 90 
L 2051.825067 90 
L 2055.295467 90 
L 2058.765867 90 
L 2062.236267 90 
L 2063.04449 90 
L 2062.236267 89.755442 
L 2058.765867 88.84407 
L 2055.295467 88.038103 
L 2051.825067 87.369271 
L 2048.354667 86.942075 
L 2044.884267 86.890909 
L 2041.413867 87.309733 
L 2037.943467 88.187962 
L 2034.473067 89.382264 
z
" style="fill:#e63333;stroke:#e63333;"/>
    <path clip-path="url(#pfa371c25fd)" d="M 2098.986607 90 
L 2100.410667 90 
L 2103.881067 90 
L 2107.351467 90 
L 2110.821867 90 
L 2114.292267 90 
L 2117.762667 90 
L 2121.233067 90 
L 2124.703467 90 
L 2128.173867 90 
L 2131.644267 90 
L 2135.114667 90 
L 2135.891826 90 
L 2135.114667 89.141486 
L 2131.644267 85.676549 
L 2128.173867 83.244544 
L 2124.703467 82.123377 
L 2121.233067 82.166503 
L 2117.762667 82.953054 
L 2114.292267 84.035011 
L 2110.821867 85.147076 
L 2107.351467 86.277129 
L 2103.881067 87.580265 
L 2100.410667 89.205405 
z
" style="fill:#e63333;stroke:#e63333;"/>
    <path clip-path="url(#pfa371c25fd)" d="M 2170.104302 90 
L 2173.289067 90 
L 2176.759467 90 
L 2180.229867 90 
L 2183.700267 90 
L 2187.170667 90 
L 2190.641067 90 
L 2194.111467 90 
L 2197.581867 90 
L 2198.791534 90 
L 2197.581867 89.210558 
L 2194.111467 87.116747 
L 2190.641067 85.561208 
L 2187.170667 84.785037 
L 2183.700267 84.85616 
L 2180.229867 85.664018 
L 2176.759467 86.972062 
L 2173.289067 88.519873 
z
" style="fill:#e63333;stroke:#e63333;"/>
    <path clip-path="url(#pfa371c25fd)" d="M 2223.840243 90 
L 2225.345067 90 
L 2228.815467 90 
L 2232.285867 90 
L 2235.756267 90 
L 2239.226667 90 
L 2242.697067 90 
L 2246.167467 90 
L 2249.637867 90 
L 2253.108267 90 
L 2256.578667 90 
L 2260.049067 90 
L 2263.519467 90 
L 2264.385347 90 
L 2263.519467 89.847947 
L 2260.049067 89.523729 
L 2256.578667 89.508684 
L 2253.108267 89.659104 
L 2249.637867 89.724701 
L 2246.167467 89.4763 
L 2242.697067 88.843375 
L 2239.226667 87.987643 
L 2235.756267 87.264325 
L 2232.285867 87.079221 
L 2228.815467 87.705518 
L 2225.345067 89.147279 
z
" style="fill:#e63333;stroke:#e63333;"/>
    <path clip-path="url(#pfa371c25fd)" d="M 2285.868493 90 
L 2287.812267 90 
L 2291.282667 90 
L 2294.753067 90 
L 2298.223467 90 
L 2301.693867 90 
L 2305.164267 90 
L 2308.634667 90 
L 2312.105067 90 
L 2315.575467 90 
L 2315.65483 90 
L 2315.575467 89.955608 
L 2312.105067 87.634753 
L 2308.634667 85.515929 
L 2305.164267 84.102006 
L 2301.693867 83.676632 
L 2298.223467 84.251921 
L 2294.753067 85.605413 
L 2291.282667 87.374956 
L 2287.812267 89.168345 
z
" style="fill:#e63333;stroke:#e63333;"/>
    <path clip-path="url(#pfa371c25fd)" d="M 2335.055709 90 
L 2336.397867 90 
L 2339.868267 90 
L 2343.338667 90 
L 2346.809067 90 
L 2347.447742 90 
L 2346.809067 89.784414 
L 2343.338667 88.945568 
L 2339.868267 88.82066 
L 2336.397867 89.509439 
z
" style="fill:#e63333;stroke:#e63333;"/>
    <path clip-path="url(#pfa371c25fd)" d="M 2366.847016 90 
L 2367.631467 90 
L 2371.101867 90 
L 2374.572267 90 
L 2378.042667 90 
L 2381.513067 90 
L 2384.983467 90 
L 2387.298213 90 
L 2384.983467 89.482063 
L 2381.513067 88.626799 
L 2378.042667 88.026558 
L 2374.572267 87.973428 
L 2371.101867 88.580079 
L 2367.631467 89.708047 
z
" style="fill:#e63333;stroke:#e63333;"/>
    <path clip-path="url(#pfa371c25fd)" d="M 2443.66257 90 
L 2443.980267 90 
L 2447.450667 90 
L 2450.921067 90 
L 2454.391467 90 
L 2457.861867 90 
L 2461.332267 90 
L 2464.802667 90 
L 2468.273067 90 
L 2471.743467 90 
L 2475.213867 90 
L 2478.684267 90 
L 2482.154667 90 
L 2485.625067 90 
L 2489.095467 90 
L 2492.565867 90 
L 2496.036267 90 
L 2499.506667 90 
L 2502.977067 90 
L 2506.447467 90 
L 2509.917867 90 
L 2513.388267 90 
L 2514.137915 90 
L 2513.388267 89.757935 
L 2509.917867 88.633594 
L 2506.447467 87.69841 
L 2502.977067 87.055992 
L 2499.506667 86.650478 
L 2496.036267 86.289711 
L 2492.565867 85.756779 
L 2489.095467 84.948273 
L 2485.625067 83.957307 
L 2482.154667 83.048534 
L 2478.684267 82.534251 
L 2475.213867 82.618523 
L 2471.743467 83.29532 
L 2468.273067 84.355403 
L 2464.802667 85.494435 
L 2461.332267 86.45991 
L 2457.861867 87.158518 
L 2454.391467 87.673948 
L 2450.921067 88.196509 
L 2447.450667 88.909446 
L 2443.980267 89.891399 
z
" style="fill:#e63333;stroke:#e63333;"/>
    <path clip-path="url(#pfa371c25fd)" d="M 2552.587808 90 
L 2555.033067 90 
L 2558.503467 90 
L 2561.973867 90 
L 2565.444267 90 
L 2568.914667 90 
L 2572.385067 90 
L 2575.855467 90 
L 2579.325867 90 
L 2582.796267 90 
L 2583.109196 90 
L 2582.796267 89.887565 
L 2579.325867 89.187191 
L 2575.855467 88.983628 
L 2572.385067 89.038894 
L 2568.914667 89.098619 
L 2565.444267 89.047456 
L 2561.973867 88.961435 
L 2558.503467 89.036899 
L 2555.033067 89.449186 
z
" style="fill:#e63333;stroke:#e63333;"/>
    <path clip-path="url(#pfa371c25fd)" d="M 2609.837763 90 
L 2610.559467 90 
L 2614.029867 90 
L 2617.500267 90 
L 2620.970667 90 
L 2624.441067 90 
L 2627.911467 90 
L 2631.381867 90 
L 2634.852267 90 
L 2638.322667 90 
L 2641.793067 90 
L 2645.263467 90 
L 2648.733867 90 
L 2652.204267 90 
L 2655.674667 90 
L 2659.145067 90 
L 2662.615467 90 
L 2664.289556 90 
L 2662.615467 89.453642 
L 2659.145067 88.540949 
L 2655.674667 87.895931 
L 2652.204267 87.436939 
L 2648.733867 86.995761 
L 2645.263467 86.406379 
L 2641.793067 85.59349 
L 2638.322667 84.615875 
L 2634.852267 83.646224 
L 2631.381867 82.905323 
L 2627.911467 82.591174 
L 2624.441067 82.837214 
L 2620.970667 83.704504 
L 2617.500267 85.18485 
L 2614.029867 87.188667 
L 2610.559467 89.516187 
z
" style="fill:#e63333;stroke:#e63333;"/>
    <path clip-path="url(#pfa371c25fd)" d="M 2724.960403 90 
L 2725.082667 90 
L 2728.553067 90 
L 2732.023467 90 
L 2735.493867 90 
L 2738.964267 90 
L 2742.434667 90 
L 2745.905067 90 
L 2749.375467 90 
L 2752.845867 90 
L 2756.316267 90 
L 2759.786667 90 
L 2763.257067 90 
L 2766.727467 90 
L 2770.197867 90 
L 2773.668267 90 
L 2777.138667 90 
L 2780.609067 90 
L 2784.079467 90 
L 2787.549867 90 
L 2791.020267 90 
L 2794.490667 90 
L 2794.978361 90 
L 2794.490667 89.891761 
L 2791.020267 88.938343 
L 2787.549867 87.764202 
L 2784.079467 86.41259 
L 2780.609067 85.032269 
L 2777.138667 83.855326 
L 2773.668267 83.129147 
L 2770.197867 83.023644 
L 2766.727467 83.550748 
L 2763.257067 84.535811 
L 2759.786667 85.663216 
L 2756.316267 86.585552 
L 2752.845867 87.053597 
L 2749.375467 87.011444 
L 2745.905067 86.615002 
L 2742.434667 86.165733 
L 2738.964267 85.988545 
L 2735.493867 86.306954 
L 2732.023467 87.169266 
L 2728.553067 88.454647 
L 2725.082667 89.947597 
z
" style="fill:#e63333;stroke:#e63333;"/>
    <path clip-path="url(#pfa371c25fd)" d="M 2826.514943 90 
L 2829.194667 90 
L 2832.665067 90 
L 2836.135467 90 
L 2839.605867 90 
L 2843.076267 90 
L 2844.035123 90 
L 2843.076267 89.626064 
L 2839.605867 88.643863 
L 2836.135467 88.244153 
L 2832.665067 88.474788 
L 2829.194667 89.215919 
z
" style="fill:#e63333;stroke:#e63333;"/>
    <path clip-path="url(#pfa371c25fd)" d="M 2932.865389 90 
L 2933.306667 90 
L 2936.777067 90 
L 2940.247467 90 
L 2943.717867 90 
L 2947.188267 90 
L 2950.658667 90 
L 2954.129067 90 
L 2956.658789 90 
L 2954.129067 89.509585 
L 2950.658667 88.939681 
L 2947.188267 88.575684 
L 2943.717867 88.481452 
L 2940.247467 88.691839 
L 2936.777067 89.195085 
L 2933.306667 89.904531 
z
" style="fill:#e63333;stroke:#e63333;"/>
    <path clip-path="url(#pfa371c25fd)" d="M 2972.178831 90 
L 2974.951467 90 
L 2978.421867 90 
L 2981.892267 90 
L 2985.362667 90 
L 2988.833067 90 
L 2992.303467 90 
L 2995.773867 90 
L 2999.244267 90 
L 3001.223588 90 
L 2999.244267 89.44998 
L 2995.773867 88.119128 
L 2992.303467 86.781864 
L 2988.833067 85.864342 
L 2985.362667 85.685519 
L 2981.892267 86.318451 
L 2978.421867 87.557833 
L 2974.951467 89.008825 
z
" style="fill:#e63333;stroke:#e63333;"/>
    <path clip-path="url(#pfa371c25fd)" d="M 3015.255249 90 
L 3016.596267 90 
L 3020.066667 90 
L 3023.537067 90 
L 3027.007467 90 
L 3030.477867 90 
L 3033.948267 90 
L 3037.418667 90 
L 3040.889067 90 
L 3044.359467 90 
L 3047.829867 90 
L 3051.300267 90 
L 3054.770667 90 
L 3058.241067 90 
L 3060.886168 90 
L 3058.241067 89.198782 
L 3054.770667 88.80129 
L 3051.300267 88.835652 
L 3047.829867 89.003237 
L 3044.359467 89.075691 
L 3040.889067 88.974726 
L 3037.418667 88.75983 
L 3033.948267 88.554275 
L 3030.477867 88.467013 
L 3027.007467 88.553743 
L 3023.537067 88.821378 
L 3020.066667 89.247771 
L 3016.596267 89.785243 
z
" style="fill:#e63333;stroke:#e63333;"/>
    <path clip-path="url(#pfa371c25fd)" d="M 3097.9998 90 
L 3099.885867 90 
L 3103.356267 90 
L 3104.064837 90 
L 3103.356267 89.877573 
L 3099.885867 89.714075 
z
" style="fill:#e63333;stroke:#e63333;"/>
    <path clip-path="url(#pfa371c25fd)" d="M 3126.027116 90 
L 3127.649067 90 
L 3131.119467 90 
L 3134.589867 90 
L 3138.060267 90 
L 3141.530667 90 
L 3145.001067 90 
L 3148.471467 90 
L 3151.941867 90 
L 3155.412267 90 
L 3158.882667 90 
L 3162.353067 90 
L 3165.823467 90 
L 3169.293867 90 
L 3172.764267 90 
L 3176.234667 90 
L 3179.705067 90 
L 3183.175467 90 
L 3186.645867 90 
L 3190.116267 90 
L 3193.586667 90 
L 3197.057067 90 
L 3200.527467 90 
L 3203.997867 90 
L 3207.468267 90 
L 3210.938667 90 
L 3214.409067 90 
L 3217.607319 90 
L 3214.409067 89.529767 
L 3210.938667 89.234744 
L 3207.468267 89.179154 
L 3203.997867 89.268229 
L 3200.527467 89.375612 
L 3197.057067 89.43046 
L 3193.586667 89.448407 
L 3190.116267 89.492376 
L 3186.645867 89.598345 
L 3183.175467 89.723742 
L 3179.705067 89.758257 
L 3176.234667 89.591947 
L 3172.764267 89.19473 
L 3169.293867 88.651873 
L 3165.823467 88.128167 
L 3162.353067 87.780367 
L 3158.882667 87.672108 
L 3155.412267 87.744692 
L 3151.941867 87.86152 
L 3148.471467 87.897791 
L 3145.001067 87.82063 
L 3141.530667 87.713577 
L 3138.060267 87.734243 
L 3134.589867 88.030777 
L 3131.119467 88.660819 
L 3127.649067 89.550824 
z
" style="fill:#e63333;stroke:#e63333;"/>
    <path clip-path="url(#pfa371c25fd)" d="M 3232.610559 90 
L 3235.231467 90 
L 3238.701867 90 
L 3242.172267 90 
L 3245.642667 90 
L 3249.113067 90 
L 3252.583467 90 
L 3256.053867 90 
L 3259.524267 90 
L 3262.994667 90 
L 3266.465067 90 
L 3269.890367 90 
L 3266.465067 89.261527 
L 3262.994667 88.530542 
L 3259.524267 87.816165 
L 3256.053867 87.151824 
L 3252.583467 86.623989 
L 3249.113067 86.365147 
L 3245.642667 86.507708 
L 3242.172267 87.110393 
L 3238.701867 88.095412 
L 3235.231467 89.240668 
z
" style="fill:#e63333;stroke:#e63333;"/>
    <path clip-path="url(#pfa371c25fd)" d="M 3350.282359 90 
L 3353.225067 90 
L 3356.695467 90 
L 3360.165867 90 
L 3363.636267 90 
L 3367.106667 90 
L 3370.577067 90 
L 3374.047467 90 
L 3377.517867 90 
L 3380.988267 90 
L 3384.458667 90 
L 3387.929067 90 
L 3391.399467 90 
L 3394.869867 90 
L 3398.340267 90 
L 3401.810667 90 
L 3405.281067 90 
L 3408.751467 90 
L 3411.108212 90 
L 3408.751467 89.376433 
L 3405.281067 88.294843 
L 3401.810667 87.140098 
L 3398.340267 86.020477 
L 3394.869867 85.038967 
L 3391.399467 84.270221 
L 3387.929067 83.748603 
L 3384.458667 83.472468 
L 3380.988267 83.4211 
L 3377.517867 83.573681 
L 3374.047467 83.918356 
L 3370.577067 84.446265 
L 3367.106667 85.137632 
L 3363.636267 85.955865 
L 3360.165867 86.86171 
L 3356.695467 87.842242 
L 3353.225067 88.930833 
z
" style="fill:#e63333;stroke:#e63333;"/>
    <path clip-path="url(#pfa371c25fd)" d="M 3511.477098 90 
L 3512.863467 90 
L 3516.333867 90 
L 3519.804267 90 
L 3523.274667 90 
L 3526.745067 90 
L 3530.215467 90 
L 3533.685867 90 
L 3537.156267 90 
L 3540.626667 90 
L 3544.097067 90 
L 3547.567467 90 
L 3551.037867 90 
L 3554.508267 90 
L 3557.978667 90 
L 3561.449067 90 
L 3564.919467 90 
L 3568.389867 90 
L 3571.860267 90 
L 3575.330667 90 
L 3578.801067 90 
L 3582.271467 90 
L 3585.741867 90 
L 3588.619718 90 
L 3585.741867 88.731084 
L 3582.271467 87.606697 
L 3578.801067 86.908992 
L 3575.330667 86.56917 
L 3571.860267 86.465623 
L 3568.389867 86.451862 
L 3564.919467 86.379386 
L 3561.449067 86.127017 
L 3557.978667 85.639366 
L 3554.508267 84.960156 
L 3551.037867 84.237104 
L 3547.567467 83.68343 
L 3544.097067 83.502928 
L 3540.626667 83.807268 
L 3537.156267 84.563167 
L 3533.685867 85.597864 
L 3530.215467 86.666773 
L 3526.745067 87.556954 
L 3523.274667 88.179004 
L 3519.804267 88.601872 
L 3516.333867 89.012646 
L 3512.863467 89.622528 
z
" style="fill:#e63333;stroke:#e63333;"/>
    <path clip-path="url(#pfa371c25fd)" d="M 3674.073328 90 
L 3675.972267 90 
L 3679.442667 90 
L 3682.913067 90 
L 3686.383467 90 
L 3689.853867 90 
L 3693.324267 90 
L 3696.794667 90 
L 3700.265067 90 
L 3703.735467 90 
L 3707.205867 90 
L 3710.676267 90 
L 3714.146667 90 
L 3717.617067 90 
L 3721.087467 90 
L 3723.276343 90 
L 3721.087467 88.82437 
L 3717.617067 87.340498 
L 3714.146667 86.132609 
L 3710.676267 85.042725 
L 3707.205867 83.990682 
L 3703.735467 83.046631 
L 3700.265067 82.40377 
L 3696.794667 82.272244 
L 3693.324267 82.760619 
L 3689.853867 83.813416 
L 3686.383467 85.234372 
L 3682.913067 86.772917 
L 3679.442667 88.218911 
L 3675.972267 89.455116 
z
" style="fill:#e63333;stroke:#e63333;"/>
    <path clip-path="url(#pfa371c25fd)" d="M 3781.978944 90 
L 3783.554667 90 
L 3787.025067 90 
L 3790.495467 90 
L 3793.965867 90 
L 3797.436267 90 
L 3800.906667 90 
L 3804.377067 90 
L 3807.847467 90 
L 3811.317867 90 
L 3814.788267 90 
L 3818.258667 90 
L 3821.729067 90 
L 3825.199467 90 
L 3828.669867 90 
L 3832.140267 90 
L 3835.610667 90 
L 3839.081067 90 
L 3842.551467 90 
L 3843.540835 90 
L 3842.551467 89.821688 
L 3839.081067 89.063523 
L 3835.610667 88.322039 
L 3832.140267 87.723118 
L 3828.669867 87.31469 
L 3825.199467 87.044098 
L 3821.729067 86.779996 
L 3818.258667 86.373567 
L 3814.788267 85.735862 
L 3811.317867 84.897258 
L 3807.847467 84.018806 
L 3804.377067 83.345495 
L 3800.906667 83.11927 
L 3797.436267 83.489886 
L 3793.965867 84.462595 
L 3790.495467 85.902964 
L 3787.025067 87.591376 
L 3783.554667 89.297961 
z
" style="fill:#e63333;stroke:#e63333;"/>
    <path clip-path="url(#pfa371c25fd)" d="M 3907.934694 90 
L 3908.489067 90 
L 3911.959467 90 
L 3915.429867 90 
L 3918.900267 90 
L 3922.370667 90 
L 3925.035064 90 
L 3922.370667 89.623942 
L 3918.900267 89.346567 
L 3915.429867 89.311115 
L 3911.959467 89.513403 
L 3908.489067 89.915197 
z
" style="fill:#e63333;stroke:#e63333;"/>
    <path clip-path="url(#pfa371c25fd)" d="M 3954.123875 90 
L 3957.074667 90 
L 3960.545067 90 
L 3964.015467 90 
L 3967.485867 90 
L 3970.956267 90 
L 3974.426667 90 
L 3977.897067 90 
L 3981.367467 90 
L 3984.482882 90 
L 3981.367467 88.947428 
L 3977.897067 87.638177 
L 3974.426667 86.486225 
L 3970.956267 85.778193 
L 3967.485867 85.699242 
L 3964.015467 86.278098 
L 3960.545067 87.387269 
L 3957.074667 88.790382 
z
" style="fill:#e63333;stroke:#e63333;"/>
    <path clip-path="url(#pfa371c25fd)" d="M 4059.265206 90 
L 4061.186667 90 
L 4064.657067 90 
L 4068.127467 90 
L 4071.597867 90 
L 4075.068267 90 
L 4078.538667 90 
L 4082.009067 90 
L 4085.479467 90 
L 4088.949867 90 
L 4092.420267 90 
L 4095.890667 90 
L 4099.361067 90 
L 4102.831467 90 
L 4106.301867 90 
L 4109.772267 90 
L 4113.242667 90 
L 4116.713067 90 
L 4120.183467 90 
L 4123.653867 90 
L 4123.885753 90 
L 4123.653867 89.979177 
L 4120.183467 89.377938 
L 4116.713067 88.56421 
L 4113.242667 87.685286 
L 4109.772267 86.915399 
L 4106.301867 86.395145 
L 4102.831467 86.17389 
L 4099.361067 86.180421 
L 4095.890667 86.240833 
L 4092.420267 86.145308 
L 4088.949867 85.742932 
L 4085.479467 85.026106 
L 4082.009067 84.164149 
L 4078.538667 83.463586 
L 4075.068267 83.263335 
L 4071.597867 83.802461 
L 4068.127467 85.113133 
L 4064.657067 86.985464 
L 4061.186667 89.024968 
z
" style="fill:#e63333;stroke:#e63333;"/>
    <path clip-path="url(#pfa371c25fd)" d="M 4136.925636 90 
L 4137.535467 90 
L 4141.005867 90 
L 4143.280041 90 
L 4141.005867 89.883328 
L 4137.535467 89.964645 
z
" style="fill:#e63333;stroke:#e63333;"/>
   </g>
   <g id="PolyCollection_2">
    <path clip-path="url(#pfa371c25fd)" d="M -1029.890133 90 
L -1029.890133 90 
L -1029.8075 90 
L -1029.890133 90.053222 
z
" style="fill:#3333b2;stroke:#3333b2;"/>
    <path clip-path="url(#pfa371c25fd)" d="M -971.644678 90 
L -970.893333 90 
L -967.422933 90 
L -963.952533 90 
L -960.482133 90 
L -957.011733 90 
L -953.541333 90 
L -951.146965 90 
L -953.541333 90.608169 
L -957.011733 91.672209 
L -960.482133 92.505842 
L -963.952533 92.70375 
L -967.422933 92.01602 
L -970.893333 90.458759 
z
" style="fill:#3333b2;stroke:#3333b2;"/>
    <path clip-path="url(#pfa371c25fd)" d="M -940.39535 90 
L -939.659733 90 
L -936.189333 90 
L -932.718933 90 
L -929.248533 90 
L -925.778133 90 
L -922.307733 90 
L -918.837333 90 
L -915.366933 90 
L -911.896533 90 
L -908.801103 90 
L -911.896533 90.902889 
L -915.366933 91.855092 
L -918.837333 92.601598 
L -922.307733 93.032985 
L -925.778133 93.077574 
L -929.248533 92.713952 
L -932.718933 91.994135 
L -936.189333 91.060855 
L -939.659733 90.138345 
z
" style="fill:#3333b2;stroke:#3333b2;"/>
    <path clip-path="url(#pfa371c25fd)" d="M -859.887413 90 
L -859.840533 90 
L -856.370133 90 
L -852.899733 90 
L -849.429333 90 
L -845.958933 90 
L -842.488533 90 
L -839.018133 90 
L -837.589739 90 
L -839.018133 90.350213 
L -842.488533 91.67493 
L -845.958933 92.863942 
L -849.429333 93.371466 
L -852.899733 92.936843 
L -856.370133 91.677327 
L -859.840533 90.020363 
z
" style="fill:#3333b2;stroke:#3333b2;"/>
    <path clip-path="url(#pfa371c25fd)" d="M -830.41022 90 
L -828.606933 90 
L -825.136533 90 
L -821.666133 90 
L -818.195733 90 
L -814.725333 90 
L -811.254933 90 
L -807.784533 90 
L -805.262276 90 
L -807.784533 91.32737 
L -811.254933 93.058398 
L -814.725333 94.183483 
L -818.195733 94.343671 
L -821.666133 93.509624 
L -825.136533 92.028332 
L -828.606933 90.500758 
z
" style="fill:#3333b2;stroke:#3333b2;"/>
    <path clip-path="url(#pfa371c25fd)" d="M -778.934924 90 
L -776.550933 90 
L -773.080533 90 
L -769.610133 90 
L -766.139733 90 
L -762.669333 90 
L -759.198933 90 
L -755.728533 90 
L -753.909455 90 
L -755.728533 90.752462 
L -759.198933 92.029353 
L -762.669333 92.851565 
L -766.139733 93.058919 
L -769.610133 92.66474 
L -773.080533 91.824599 
L -776.550933 90.75642 
z
" style="fill:#3333b2;stroke:#3333b2;"/>
    <path clip-path="url(#pfa371c25fd)" d="M -704.895957 90 
L -703.672533 90 
L -700.202133 90 
L -696.731733 90 
L -693.894242 90 
L -696.731733 90.42467 
L -700.202133 90.535154 
L -703.672533 90.211319 
z
" style="fill:#3333b2;stroke:#3333b2;"/>
    <path clip-path="url(#pfa371c25fd)" d="M -677.103124 90 
L -675.909333 90 
L -672.438933 90 
L -668.968533 90 
L -665.498133 90 
L -662.027733 90 
L -658.557333 90 
L -655.086933 90 
L -651.616533 90 
L -648.146133 90 
L -645.380043 90 
L -648.146133 90.788479 
L -651.616533 92.023565 
L -655.086933 93.270124 
L -658.557333 94.236357 
L -662.027733 94.650666 
L -665.498133 94.354041 
L -668.968533 93.372589 
L -672.438933 91.934805 
L -675.909333 90.414394 
z
" style="fill:#3333b2;stroke:#3333b2;"/>
    <path clip-path="url(#pfa371c25fd)" d="M -629.253564 90 
L -627.323733 90 
L -623.853333 90 
L -620.382933 90 
L -616.912533 90 
L -613.442133 90 
L -609.971733 90 
L -606.501333 90 
L -603.030933 90 
L -599.560533 90 
L -599.403086 90 
L -599.560533 90.025218 
L -603.030933 90.938611 
L -606.501333 91.89604 
L -609.971733 92.590487 
L -613.442133 92.834558 
L -616.912533 92.603979 
L -620.382933 92.00706 
L -623.853333 91.214516 
L -627.323733 90.395002 
z
" style="fill:#3333b2;stroke:#3333b2;"/>
    <path clip-path="url(#pfa371c25fd)" d="M -589.038403 90 
L -585.678933 90 
L -582.208533 90 
L -578.738133 90 
L -575.267733 90 
L -571.797333 90 
L -568.326933 90 
L -564.856533 90 
L -561.386133 90 
L -557.915733 90 
L -554.445333 90 
L -550.974933 90 
L -547.504533 90 
L -544.213653 90 
L -547.504533 92.475431 
L -550.974933 94.547028 
L -554.445333 95.775436 
L -557.915733 96.10703 
L -561.386133 95.737985 
L -564.856533 95.00783 
L -568.326933 94.237158 
L -571.797333 93.592061 
L -575.267733 93.045913 
L -578.738133 92.455486 
L -582.208533 91.702237 
L -585.678933 90.811089 
z
" style="fill:#3333b2;stroke:#3333b2;"/>
    <path clip-path="url(#pfa371c25fd)" d="M -503.158505 90 
L -502.389333 90 
L -498.918933 90 
L -495.448533 90 
L -491.978133 90 
L -488.507733 90 
L -485.037333 90 
L -481.566933 90 
L -478.096533 90 
L -474.626133 90 
L -471.155733 90 
L -467.685333 90 
L -464.214933 90 
L -460.744533 90 
L -457.274133 90 
L -453.803733 90 
L -450.333333 90 
L -446.862933 90 
L -443.392533 90 
L -439.922133 90 
L -438.729957 90 
L -439.922133 90.918599 
L -443.392533 93.960329 
L -446.862933 96.615117 
L -450.333333 98.235486 
L -453.803733 98.508643 
L -457.274133 97.569201 
L -460.744533 95.940418 
L -464.214933 94.32012 
L -467.685333 93.299995 
L -471.155733 93.141032 
L -474.626133 93.702572 
L -478.096533 94.548783 
L -481.566933 95.171659 
L -485.037333 95.217971 
L -488.507733 94.614454 
L -491.978133 93.544931 
L -495.448533 92.311171 
L -498.918933 91.16372 
L -502.389333 90.192643 
z
" style="fill:#3333b2;stroke:#3333b2;"/>
    <path clip-path="url(#pfa371c25fd)" d="M -420.472366 90 
L -419.099733 90 
L -415.629333 90 
L -412.158933 90 
L -408.688533 90 
L -405.218133 90 
L -401.747733 90 
L -398.277333 90 
L -394.806933 90 
L -391.336533 90 
L -387.866133 90 
L -384.395733 90 
L -380.925333 90 
L -377.454933 90 
L -373.984533 90 
L -370.514133 90 
L -367.043733 90 
L -365.152826 90 
L -367.043733 90.975916 
L -370.514133 92.510857 
L -373.984533 93.526466 
L -377.454933 93.949292 
L -380.925333 93.914319 
L -384.395733 93.696912 
L -387.866133 93.58925 
L -391.336533 93.779057 
L -394.806933 94.28298 
L -398.277333 94.954216 
L -401.747733 95.546033 
L -405.218133 95.793573 
L -408.688533 95.484115 
L -412.158933 94.50776 
L -415.629333 92.894903 
L -419.099733 90.842221 
z
" style="fill:#3333b2;stroke:#3333b2;"/>
    <path clip-path="url(#pfa371c25fd)" d="M -336.889616 90 
L -335.810133 90 
L -332.339733 90 
L -328.869333 90 
L -325.398933 90 
L -323.277542 90 
L -325.398933 90.74218 
L -328.869333 91.358974 
L -332.339733 91.216442 
L -335.810133 90.392554 
z
" style="fill:#3333b2;stroke:#3333b2;"/>
    <path clip-path="url(#pfa371c25fd)" d="M -302.049302 90 
L -301.106133 90 
L -297.635733 90 
L -294.165333 90 
L -290.694933 90 
L -287.224533 90 
L -283.754133 90 
L -281.303627 90 
L -283.754133 90.319613 
L -287.224533 91.292298 
L -290.694933 92.187656 
L -294.165333 92.461836 
L -297.635733 91.846793 
L -301.106133 90.461775 
z
" style="fill:#3333b2;stroke:#3333b2;"/>
    <path clip-path="url(#pfa371c25fd)" d="M -279.322035 90 
L -276.813333 90 
L -273.342933 90 
L -269.872533 90 
L -266.402133 90 
L -262.931733 90 
L -259.461333 90 
L -255.990933 90 
L -252.520533 90 
L -249.050133 90 
L -245.579733 90 
L -242.109333 90 
L -238.638933 90 
L -235.168533 90 
L -231.698133 90 
L -228.227733 90 
L -224.757333 90 
L -221.286933 90 
L -217.816533 90 
L -214.346133 90 
L -210.875733 90 
L -207.405333 90 
L -203.934933 90 
L -200.464533 90 
L -196.994133 90 
L -193.523733 90 
L -190.053333 90 
L -186.582933 90 
L -185.593956 90 
L -186.582933 90.574703 
L -190.053333 92.02405 
L -193.523733 92.828718 
L -196.994133 93.184199 
L -200.464533 93.45409 
L -203.934933 94.004942 
L -207.405333 95.051215 
L -210.875733 96.56698 
L -214.346133 98.289162 
L -217.816533 99.804528 
L -221.286933 100.689513 
L -224.757333 100.660503 
L -228.227733 99.689418 
L -231.698133 98.043924 
L -235.168533 96.226987 
L -238.638933 94.820851 
L -242.109333 94.281254 
L -245.579733 94.759758 
L -249.050133 96.032206 
L -252.520533 97.570725 
L -255.990933 98.73374 
L -259.461333 98.997741 
L -262.931733 98.14169 
L -266.402133 96.320302 
L -269.872533 94.006671 
L -273.342933 91.827687 
L -276.813333 90.347003 
z
" style="fill:#3333b2;stroke:#3333b2;"/>
    <path clip-path="url(#pfa371c25fd)" d="M -133.983252 90 
L -131.056533 90 
L -127.586133 90 
L -124.115733 90 
L -120.645333 90 
L -117.174933 90 
L -113.704533 90 
L -110.234133 90 
L -106.763733 90 
L -103.293333 90 
L -99.822933 90 
L -96.352533 90 
L -92.882133 90 
L -89.411733 90 
L -85.941333 90 
L -82.470933 90 
L -79.000533 90 
L -75.530133 90 
L -72.059733 90 
L -68.589333 90 
L -65.118933 90 
L -61.648533 90 
L -60.26946 90 
L -61.648533 91.708979 
L -65.118933 96.866354 
L -68.589333 101.658364 
L -72.059733 104.936153 
L -75.530133 105.993553 
L -79.000533 104.759288 
L -82.470933 101.764213 
L -85.941333 97.927992 
L -89.411733 94.264648 
L -92.882133 91.609753 
L -96.352533 90.436604 
L -99.822933 90.784489 
L -103.293333 92.293214 
L -106.763733 94.326962 
L -110.234133 96.162458 
L -113.704533 97.199494 
L -117.174933 97.133195 
L -120.645333 96.027163 
L -124.115733 94.257897 
L -127.586133 92.353386 
L -131.056533 90.793622 
z
" style="fill:#3333b2;stroke:#3333b2;"/>
    <path clip-path="url(#pfa371c25fd)" d="M -15.949274 90 
L -13.062933 90 
L -9.592533 90 
L -7.397187 90 
L -9.592533 91.816165 
L -13.062933 91.438734 
z
" style="fill:#3333b2;stroke:#3333b2;"/>
    <path clip-path="url(#pfa371c25fd)" d="M 64.448403 90 
L 66.756267 90 
L 70.226667 90 
L 73.697067 90 
L 77.167467 90 
L 80.637867 90 
L 84.108267 90 
L 87.578667 90 
L 91.049067 90 
L 94.519467 90 
L 97.989867 90 
L 101.460267 90 
L 104.930667 90 
L 108.401067 90 
L 110.717508 90 
L 108.401067 95.092926 
L 104.930667 100.555929 
L 101.460267 103.141127 
L 97.989867 102.933071 
L 94.519467 100.703381 
L 91.049067 97.566607 
L 87.578667 94.560209 
L 84.108267 92.336424 
L 80.637867 91.074981 
L 77.167467 90.594636 
L 73.697067 90.546866 
L 70.226667 90.573404 
L 66.756267 90.385664 
z
" style="fill:#3333b2;stroke:#3333b2;"/>
    <path clip-path="url(#pfa371c25fd)" d="M 146.335996 90 
L 146.575467 90 
L 150.045867 90 
L 153.516267 90 
L 156.986667 90 
L 160.457067 90 
L 163.927467 90 
L 167.397867 90 
L 170.868267 90 
L 174.338667 90 
L 177.809067 90 
L 181.279467 90 
L 184.749867 90 
L 188.220267 90 
L 191.690667 90 
L 195.161067 90 
L 198.631467 90 
L 202.101867 90 
L 205.572267 90 
L 209.042667 90 
L 212.513067 90 
L 215.983467 90 
L 219.365555 90 
L 215.983467 93.698014 
L 212.513067 96.016328 
L 209.042667 96.286566 
L 205.572267 94.892935 
L 202.101867 92.945754 
L 198.631467 91.733959 
L 195.161067 92.131348 
L 191.690667 94.229298 
L 188.220267 97.339667 
L 184.749867 100.332886 
L 181.279467 102.136657 
L 177.809067 102.17242 
L 174.338667 100.554386 
L 170.868267 97.988098 
L 167.397867 95.432598 
L 163.927467 93.681245 
L 160.457067 93.035882 
L 156.986667 93.195543 
L 153.516267 93.386182 
L 150.045867 92.667094 
L 146.575467 90.295067 
z
" style="fill:#3333b2;stroke:#3333b2;"/>
    <path clip-path="url(#pfa371c25fd)" d="M 237.310044 90 
L 240.276267 90 
L 243.746667 90 
L 247.217067 90 
L 250.687467 90 
L 254.157867 90 
L 257.268563 90 
L 254.157867 93.3644 
L 250.687467 96.449146 
L 247.217067 97.790094 
L 243.746667 96.801946 
L 240.276267 93.671544 
z
" style="fill:#3333b2;stroke:#3333b2;"/>
    <path clip-path="url(#pfa371c25fd)" d="M 275.503628 90 
L 278.450667 90 
L 281.921067 90 
L 285.391467 90 
L 288.861867 90 
L 292.332267 90 
L 295.802667 90 
L 299.273067 90 
L 302.743467 90 
L 306.213867 90 
L 309.684267 90 
L 313.154667 90 
L 316.625067 90 
L 320.095467 90 
L 323.565867 90 
L 324.54064 90 
L 323.565867 90.800499 
L 320.095467 93.131931 
L 316.625067 94.720851 
L 313.154667 95.585142 
L 309.684267 95.98052 
L 306.213867 96.294562 
L 302.743467 96.867384 
L 299.273067 97.815905 
L 295.802667 98.948418 
L 292.332267 99.817035 
L 288.861867 99.890508 
L 285.391467 98.775686 
L 281.921067 96.398236 
L 278.450667 93.074698 
z
" style="fill:#3333b2;stroke:#3333b2;"/>
    <path clip-path="url(#pfa371c25fd)" d="M 369.582871 90 
L 372.151467 90 
L 375.621867 90 
L 379.092267 90 
L 382.562667 90 
L 386.033067 90 
L 389.503467 90 
L 392.973867 90 
L 396.444267 90 
L 399.914667 90 
L 403.385067 90 
L 406.855467 90 
L 410.325867 90 
L 413.796267 90 
L 414.18792 90 
L 413.796267 90.329008 
L 410.325867 93.124213 
L 406.855467 95.631201 
L 403.385067 97.682695 
L 399.914667 99.104039 
L 396.444267 99.751385 
L 392.973867 99.57174 
L 389.503467 98.644557 
L 386.033067 97.175676 
L 382.562667 95.441792 
L 379.092267 93.70905 
L 375.621867 92.158903 
L 372.151467 90.846683 
z
" style="fill:#3333b2;stroke:#3333b2;"/>
    <path clip-path="url(#pfa371c25fd)" d="M 449.67905 90 
L 451.970667 90 
L 455.441067 90 
L 458.911467 90 
L 462.381867 90 
L 465.852267 90 
L 469.322667 90 
L 472.793067 90 
L 476.263467 90 
L 479.733867 90 
L 483.204267 90 
L 486.237098 90 
L 483.204267 91.477168 
L 479.733867 93.302327 
L 476.263467 94.805482 
L 472.793067 95.694562 
L 469.322667 95.913827 
L 465.852267 95.595291 
L 462.381867 94.928891 
L 458.911467 94.029053 
L 455.441067 92.871581 
L 451.970667 91.333781 
z
" style="fill:#3333b2;stroke:#3333b2;"/>
    <path clip-path="url(#pfa371c25fd)" d="M 500.030122 90 
L 500.556267 90 
L 504.026667 90 
L 507.497067 90 
L 510.967467 90 
L 514.437867 90 
L 517.908267 90 
L 521.378667 90 
L 521.912979 90 
L 521.378667 90.149915 
L 517.908267 91.227589 
L 514.437867 92.103271 
L 510.967467 92.496405 
L 507.497067 92.243864 
L 504.026667 91.381451 
L 500.556267 90.171223 
z
" style="fill:#3333b2;stroke:#3333b2;"/>
    <path clip-path="url(#pfa371c25fd)" d="M 538.378769 90 
L 538.730667 90 
L 542.201067 90 
L 545.671467 90 
L 549.141867 90 
L 552.612267 90 
L 556.082667 90 
L 559.553067 90 
L 563.023467 90 
L 566.493867 90 
L 569.964267 90 
L 573.434667 90 
L 576.905067 90 
L 580.375467 90 
L 583.845867 90 
L 587.316267 90 
L 590.786667 90 
L 594.257067 90 
L 597.727467 90 
L 601.197867 90 
L 604.668267 90 
L 608.138667 90 
L 611.609067 90 
L 615.079467 90 
L 618.549867 90 
L 622.020267 90 
L 625.490667 90 
L 628.961067 90 
L 632.431467 90 
L 635.901867 90 
L 639.372267 90 
L 642.842667 90 
L 646.313067 90 
L 646.365311 90 
L 646.313067 90.010711 
L 642.842667 91.68179 
L 639.372267 94.069655 
L 635.901867 96.777268 
L 632.431467 99.423188 
L 628.961067 101.753081 
L 625.490667 103.641558 
L 622.020267 105.01092 
L 618.549867 105.74957 
L 615.079467 105.708605 
L 611.609067 104.792693 
L 608.138667 103.083299 
L 604.668267 100.894834 
L 601.197867 98.698248 
L 597.727467 96.933834 
L 594.257067 95.81682 
L 590.786667 95.255819 
L 587.316267 94.939536 
L 583.845867 94.542572 
L 580.375467 93.926622 
L 576.905067 93.217606 
L 573.434667 92.717353 
L 569.964267 92.708442 
L 566.493867 93.270225 
L 563.023467 94.210095 
L 559.553067 95.141023 
L 556.082667 95.653028 
L 552.612267 95.482877 
L 549.141867 94.602215 
L 545.671467 93.200131 
L 542.201067 91.591917 
L 538.730667 90.110234 
z
" style="fill:#3333b2;stroke:#3333b2;"/>
    <path clip-path="url(#pfa371c25fd)" d="M 655.401385 90 
L 656.724267 90 
L 660.194667 90 
L 663.665067 90 
L 667.135467 90 
L 670.605867 90 
L 674.076267 90 
L 677.546667 90 
L 681.017067 90 
L 684.487467 90 
L 687.957867 90 
L 688.112713 90 
L 687.957867 90.020293 
L 684.487467 90.169087 
L 681.017067 90.247485 
L 677.546667 90.476494 
L 674.076267 90.931792 
L 670.605867 91.48444 
L 667.135467 91.859638 
L 663.665067 91.793815 
L 660.194667 91.208801 
L 656.724267 90.303931 
z
" style="fill:#3333b2;stroke:#3333b2;"/>
    <path clip-path="url(#pfa371c25fd)" d="M 728.184406 90 
L 729.602667 90 
L 733.073067 90 
L 736.543467 90 
L 740.013867 90 
L 743.484267 90 
L 746.954667 90 
L 750.425067 90 
L 753.895467 90 
L 757.365867 90 
L 760.836267 90 
L 764.306667 90 
L 767.777067 90 
L 771.247467 90 
L 774.717867 90 
L 778.188267 90 
L 781.658667 90 
L 785.129067 90 
L 788.599467 90 
L 792.069867 90 
L 795.540267 90 
L 799.010667 90 
L 802.481067 90 
L 804.502529 90 
L 802.481067 91.549909 
L 799.010667 93.450612 
L 795.540267 94.59841 
L 792.069867 95.244453 
L 788.599467 95.776329 
L 785.129067 96.537036 
L 781.658667 97.64645 
L 778.188267 98.916404 
L 774.717867 99.915509 
L 771.247467 100.166623 
L 767.777067 99.387191 
L 764.306667 97.653609 
L 760.836267 95.404804 
L 757.365867 93.279292 
L 753.895467 91.859922 
L 750.425067 91.440712 
L 746.954667 91.915407 
L 743.484267 92.830499 
L 740.013867 93.57432 
L 736.543467 93.618109 
L 733.073067 92.707477 
L 729.602667 90.930985 
z
" style="fill:#3333b2;stroke:#3333b2;"/>
    <path clip-path="url(#pfa371c25fd)" d="M 849.337712 90 
L 851.066667 90 
L 854.537067 90 
L 858.007467 90 
L 861.477867 90 
L 864.948267 90 
L 868.418667 90 
L 871.889067 90 
L 875.359467 90 
L 878.829867 90 
L 882.114646 90 
L 878.829867 91.503767 
L 875.359467 92.730673 
L 871.889067 93.451903 
L 868.418667 93.68415 
L 864.948267 93.54646 
L 861.477867 93.17019 
L 858.007467 92.619338 
L 854.537067 91.856402 
L 851.066667 90.766786 
z
" style="fill:#3333b2;stroke:#3333b2;"/>
    <path clip-path="url(#pfa371c25fd)" d="M 904.180261 90 
L 906.593067 90 
L 910.063467 90 
L 913.533867 90 
L 917.004267 90 
L 920.474667 90 
L 923.945067 90 
L 927.415467 90 
L 930.885867 90 
L 934.356267 90 
L 937.826667 90 
L 941.297067 90 
L 944.767467 90 
L 948.237867 90 
L 951.708267 90 
L 955.178667 90 
L 958.649067 90 
L 962.119467 90 
L 965.589867 90 
L 966.301712 90 
L 965.589867 90.083246 
L 962.119467 90.564631 
L 958.649067 90.924714 
L 955.178667 91.067044 
L 951.708267 91.039172 
L 948.237867 91.00119 
L 944.767467 91.145164 
L 941.297067 91.610302 
L 937.826667 92.42944 
L 934.356267 93.519103 
L 930.885867 94.705361 
L 927.415467 95.768527 
L 923.945067 96.489911 
L 920.474667 96.689867 
L 917.004267 96.255165 
L 913.533867 95.160915 
L 910.063467 93.491289 
L 906.593067 91.452885 
z
" style="fill:#3333b2;stroke:#3333b2;"/>
    <path clip-path="url(#pfa371c25fd)" d="M 977.852494 90 
L 979.471467 90 
L 982.941867 90 
L 986.412267 90 
L 989.882667 90 
L 990.728783 90 
L 989.882667 90.304028 
L 986.412267 90.798784 
L 982.941867 90.674546 
L 979.471467 90.216138 
z
" style="fill:#3333b2;stroke:#3333b2;"/>
    <path clip-path="url(#pfa371c25fd)" d="M 1028.738072 90 
L 1031.527467 90 
L 1034.997867 90 
L 1038.468267 90 
L 1041.847025 90 
L 1038.468267 90.712291 
L 1034.997867 91.147766 
L 1031.527467 90.910664 
z
" style="fill:#3333b2;stroke:#3333b2;"/>
    <path clip-path="url(#pfa371c25fd)" d="M 1081.238647 90 
L 1083.583467 90 
L 1087.053867 90 
L 1090.524267 90 
L 1093.994667 90 
L 1097.465067 90 
L 1100.935467 90 
L 1104.405867 90 
L 1107.876267 90 
L 1111.346667 90 
L 1114.817067 90 
L 1118.287467 90 
L 1121.757867 90 
L 1123.327675 90 
L 1121.757867 90.432823 
L 1118.287467 91.24372 
L 1114.817067 91.62023 
L 1111.346667 91.548581 
L 1107.876267 91.29564 
L 1104.405867 91.240331 
L 1100.935467 91.626213 
L 1097.465067 92.38354 
L 1093.994667 93.132545 
L 1090.524267 93.373931 
L 1087.053867 92.761462 
L 1083.583467 91.302524 
z
" style="fill:#3333b2;stroke:#3333b2;"/>
    <path clip-path="url(#pfa371c25fd)" d="M 1253.843836 90 
L 1257.103467 90 
L 1260.573867 90 
L 1264.044267 90 
L 1267.514667 90 
L 1270.985067 90 
L 1274.455467 90 
L 1277.925867 90 
L 1281.396267 90 
L 1284.866667 90 
L 1288.337067 90 
L 1291.807467 90 
L 1295.277867 90 
L 1298.748267 90 
L 1302.218667 90 
L 1305.689067 90 
L 1309.159467 90 
L 1312.629867 90 
L 1316.100267 90 
L 1319.570667 90 
L 1320.30678 90 
L 1319.570667 90.5083 
L 1316.100267 92.680721 
L 1312.629867 94.37934 
L 1309.159467 95.485748 
L 1305.689067 96.022483 
L 1302.218667 96.131058 
L 1298.748267 96.031368 
L 1295.277867 95.967974 
L 1291.807467 96.145685 
L 1288.337067 96.663768 
L 1284.866667 97.469681 
L 1281.396267 98.357622 
L 1277.925867 99.025874 
L 1274.455467 99.181015 
L 1270.985067 98.649004 
L 1267.514667 97.440747 
L 1264.044267 95.735921 
L 1260.573867 93.789913 
L 1257.103467 91.812204 
z
" style="fill:#3333b2;stroke:#3333b2;"/>
    <path clip-path="url(#pfa371c25fd)" d="M 1373.243369 90 
L 1375.097067 90 
L 1378.567467 90 
L 1382.037867 90 
L 1385.508267 90 
L 1388.978667 90 
L 1392.449067 90 
L 1395.476423 90 
L 1392.449067 91.269056 
L 1388.978667 92.909814 
L 1385.508267 94.214252 
L 1382.037867 94.631304 
L 1378.567467 93.785417 
L 1375.097067 91.64351 
z
" style="fill:#3333b2;stroke:#3333b2;"/>
    <path clip-path="url(#pfa371c25fd)" d="M 1454.567095 90 
L 1454.916267 90 
L 1458.386667 90 
L 1461.857067 90 
L 1465.327467 90 
L 1468.797867 90 
L 1472.268267 90 
L 1475.738667 90 
L 1479.209067 90 
L 1482.679467 90 
L 1486.149867 90 
L 1489.620267 90 
L 1493.090667 90 
L 1496.561067 90 
L 1500.031467 90 
L 1503.501867 90 
L 1506.972267 90 
L 1510.442667 90 
L 1513.913067 90 
L 1517.383467 90 
L 1520.853867 90 
L 1524.324267 90 
L 1527.794667 90 
L 1529.046798 90 
L 1527.794667 90.290841 
L 1524.324267 90.912779 
L 1520.853867 91.710425 
L 1517.383467 92.968895 
L 1513.913067 94.74929 
L 1510.442667 96.841707 
L 1506.972267 98.828881 
L 1503.501867 100.227149 
L 1500.031467 100.651777 
L 1496.561067 99.95373 
L 1493.090667 98.285404 
L 1489.620267 96.070366 
L 1486.149867 93.879271 
L 1482.679467 92.24837 
L 1479.209067 91.503933 
L 1475.738667 91.658227 
L 1472.268267 92.415582 
L 1468.797867 93.283678 
L 1465.327467 93.745797 
L 1461.857067 93.429775 
L 1458.386667 92.214304 
L 1454.916267 90.241273 
z
" style="fill:#3333b2;stroke:#3333b2;"/>
    <path clip-path="url(#pfa371c25fd)" d="M 1560.047559 90 
L 1562.498667 90 
L 1565.969067 90 
L 1569.439467 90 
L 1572.909867 90 
L 1576.380267 90 
L 1576.778712 90 
L 1576.380267 90.203642 
L 1572.909867 91.956846 
L 1569.439467 93.046122 
L 1565.969067 92.978654 
L 1562.498667 91.628996 
z
" style="fill:#3333b2;stroke:#3333b2;"/>
    <path clip-path="url(#pfa371c25fd)" d="M 1599.981845 90 
L 1600.673067 90 
L 1604.143467 90 
L 1607.613867 90 
L 1611.084267 90 
L 1614.554667 90 
L 1618.025067 90 
L 1621.495467 90 
L 1624.965867 90 
L 1628.436267 90 
L 1631.906667 90 
L 1635.377067 90 
L 1638.847467 90 
L 1640.020444 90 
L 1638.847467 91.233231 
L 1635.377067 94.240428 
L 1631.906667 96.150007 
L 1628.436267 96.84726 
L 1624.965867 96.534192 
L 1621.495467 95.600811 
L 1618.025067 94.457643 
L 1614.554667 93.398549 
L 1611.084267 92.536006 
L 1607.613867 91.815158 
L 1604.143467 91.087185 
L 1600.673067 90.211234 
z
" style="fill:#3333b2;stroke:#3333b2;"/>
    <path clip-path="url(#pfa371c25fd)" d="M 1671.772142 90 
L 1673.551467 90 
L 1677.021867 90 
L 1680.492267 90 
L 1683.962667 90 
L 1687.433067 90 
L 1690.903467 90 
L 1694.373867 90 
L 1697.844267 90 
L 1701.314667 90 
L 1704.785067 90 
L 1708.255467 90 
L 1708.578364 90 
L 1708.255467 90.093894 
L 1704.785067 91.667338 
L 1701.314667 93.39448 
L 1697.844267 94.882468 
L 1694.373867 95.861177 
L 1690.903467 96.229931 
L 1687.433067 96.032837 
L 1683.962667 95.380245 
L 1680.492267 94.357864 
L 1677.021867 92.972033 
L 1673.551467 91.164258 
z
" style="fill:#3333b2;stroke:#3333b2;"/>
    <path clip-path="url(#pfa371c25fd)" d="M 1719.170776 90 
L 1722.137067 90 
L 1725.607467 90 
L 1729.077867 90 
L 1732.548267 90 
L 1736.018667 90 
L 1739.489067 90 
L 1742.959467 90 
L 1746.429867 90 
L 1749.900267 90 
L 1752.598358 90 
L 1749.900267 91.727987 
L 1746.429867 93.953077 
L 1742.959467 95.886708 
L 1739.489067 97.189363 
L 1736.018667 97.586384 
L 1732.548267 96.97523 
L 1729.077867 95.48518 
L 1725.607467 93.463805 
L 1722.137067 91.393136 
z
" style="fill:#3333b2;stroke:#3333b2;"/>
    <path clip-path="url(#pfa371c25fd)" d="M 1790.925376 90 
L 1791.545067 90 
L 1795.015467 90 
L 1798.485867 90 
L 1801.956267 90 
L 1805.426667 90 
L 1807.15942 90 
L 1805.426667 90.645499 
L 1801.956267 91.736797 
L 1798.485867 92.199861 
L 1795.015467 91.754557 
L 1791.545067 90.371124 
z
" style="fill:#3333b2;stroke:#3333b2;"/>
    <path clip-path="url(#pfa371c25fd)" d="M 1828.746122 90 
L 1829.719467 90 
L 1833.189867 90 
L 1836.660267 90 
L 1840.130667 90 
L 1843.601067 90 
L 1847.071467 90 
L 1850.541867 90 
L 1854.012267 90 
L 1857.482667 90 
L 1860.953067 90 
L 1864.423467 90 
L 1867.893867 90 
L 1871.364267 90 
L 1874.834667 90 
L 1878.072115 90 
L 1874.834667 91.21458 
L 1871.364267 91.983986 
L 1867.893867 92.224034 
L 1864.423467 92.041818 
L 1860.953067 91.601916 
L 1857.482667 91.087989 
L 1854.012267 90.670002 
L 1850.541867 90.469297 
L 1847.071467 90.522673 
L 1843.601067 90.760997 
L 1840.130667 91.02253 
L 1836.660267 91.108141 
L 1833.189867 90.862166 
L 1829.719467 90.245661 
z
" style="fill:#3333b2;stroke:#3333b2;"/>
    <path clip-path="url(#pfa371c25fd)" d="M 1904.728593 90 
L 1906.068267 90 
L 1909.538667 90 
L 1913.009067 90 
L 1916.479467 90 
L 1919.949867 90 
L 1923.420267 90 
L 1926.890667 90 
L 1930.361067 90 
L 1933.831467 90 
L 1937.301867 90 
L 1940.772267 90 
L 1944.242667 90 
L 1947.713067 90 
L 1951.183467 90 
L 1954.653867 90 
L 1958.124267 90 
L 1961.594667 90 
L 1965.065067 90 
L 1965.811226 90 
L 1965.065067 90.3595 
L 1961.594667 92.821415 
L 1958.124267 95.606413 
L 1954.653867 98.135611 
L 1951.183467 99.880022 
L 1947.713067 100.505167 
L 1944.242667 99.963179 
L 1940.772267 98.508832 
L 1937.301867 96.629066 
L 1933.831467 94.896465 
L 1930.361067 93.784694 
L 1926.890667 93.505564 
L 1923.420267 93.929219 
L 1919.949867 94.625515 
L 1916.479467 95.022047 
L 1913.009067 94.626634 
L 1909.538667 93.228889 
L 1906.068267 90.995689 
z
" style="fill:#3333b2;stroke:#3333b2;"/>
    <path clip-path="url(#pfa371c25fd)" d="M 1981.96161 90 
L 1982.417067 90 
L 1985.887467 90 
L 1989.357867 90 
L 1992.828267 90 
L 1994.880027 90 
L 1992.828267 90.446432 
L 1989.357867 90.890842 
L 1985.887467 90.788253 
L 1982.417067 90.12785 
z
" style="fill:#3333b2;stroke:#3333b2;"/>
    <path clip-path="url(#pfa371c25fd)" d="M 2011.807104 90 
L 2013.650667 90 
L 2017.121067 90 
L 2020.591467 90 
L 2024.061867 90 
L 2027.532267 90 
L 2031.002667 90 
L 2032.767132 90 
L 2031.002667 90.63893 
L 2027.532267 91.661338 
L 2024.061867 92.199471 
L 2020.591467 92.130542 
L 2017.121067 91.503425 
L 2013.650667 90.53127 
z
" style="fill:#3333b2;stroke:#3333b2;"/>
    <path clip-path="url(#pfa371c25fd)" d="M 2063.04449 90 
L 2065.706667 90 
L 2069.177067 90 
L 2072.647467 90 
L 2076.117867 90 
L 2079.588267 90 
L 2083.058667 90 
L 2086.529067 90 
L 2089.999467 90 
L 2093.469867 90 
L 2096.940267 90 
L 2098.986607 90 
L 2096.940267 91.141814 
L 2093.469867 93.168517 
L 2089.999467 94.925151 
L 2086.529067 96.058464 
L 2083.058667 96.366086 
L 2079.588267 95.868598 
L 2076.117867 94.781957 
L 2072.647467 93.412926 
L 2069.177067 92.035046 
L 2065.706667 90.805541 
z
" style="fill:#3333b2;stroke:#3333b2;"/>
    <path clip-path="url(#pfa371c25fd)" d="M 2135.891826 90 
L 2138.585067 90 
L 2142.055467 90 
L 2145.525867 90 
L 2148.996267 90 
L 2152.466667 90 
L 2155.937067 90 
L 2159.407467 90 
L 2162.877867 90 
L 2166.348267 90 
L 2169.818667 90 
L 2170.104302 90 
L 2169.818667 90.13275 
L 2166.348267 91.777372 
L 2162.877867 93.519376 
L 2159.407467 95.393338 
L 2155.937067 97.258634 
L 2152.466667 98.741355 
L 2148.996267 99.325414 
L 2145.525867 98.570098 
L 2142.055467 96.348501 
L 2138.585067 92.975177 
z
" style="fill:#3333b2;stroke:#3333b2;"/>
    <path clip-path="url(#pfa371c25fd)" d="M 2198.791534 90 
L 2201.052267 90 
L 2204.522667 90 
L 2207.993067 90 
L 2211.463467 90 
L 2214.933867 90 
L 2218.404267 90 
L 2221.874667 90 
L 2223.840243 90 
L 2221.874667 91.113811 
L 2218.404267 93.114089 
L 2214.933867 94.624087 
L 2211.463467 95.252432 
L 2207.993067 94.842216 
L 2204.522667 93.48651 
L 2201.052267 91.47538 
z
" style="fill:#3333b2;stroke:#3333b2;"/>
    <path clip-path="url(#pfa371c25fd)" d="M 2264.385347 90 
L 2266.989867 90 
L 2270.460267 90 
L 2273.930667 90 
L 2277.401067 90 
L 2280.871467 90 
L 2284.341867 90 
L 2285.868493 90 
L 2284.341867 90.653176 
L 2280.871467 91.611735 
L 2277.401067 91.963183 
L 2273.930667 91.762199 
L 2270.460267 91.178948 
L 2266.989867 90.457368 
z
" style="fill:#3333b2;stroke:#3333b2;"/>
    <path clip-path="url(#pfa371c25fd)" d="M 2315.65483 90 
L 2319.045867 90 
L 2322.516267 90 
L 2325.986667 90 
L 2329.457067 90 
L 2332.927467 90 
L 2335.055709 90 
L 2332.927467 90.777875 
L 2329.457067 92.136141 
L 2325.986667 93.016826 
L 2322.516267 92.984561 
L 2319.045867 91.896791 
z
" style="fill:#3333b2;stroke:#3333b2;"/>
    <path clip-path="url(#pfa371c25fd)" d="M 2347.447742 90 
L 2350.279467 90 
L 2353.749867 90 
L 2357.220267 90 
L 2360.690667 90 
L 2364.161067 90 
L 2366.847016 90 
L 2364.161067 90.999641 
L 2360.690667 92.006664 
L 2357.220267 92.366984 
L 2353.749867 91.957241 
L 2350.279467 90.955855 
z
" style="fill:#3333b2;stroke:#3333b2;"/>
    <path clip-path="url(#pfa371c25fd)" d="M 2387.298213 90 
L 2388.453867 90 
L 2391.924267 90 
L 2395.394667 90 
L 2398.865067 90 
L 2402.335467 90 
L 2405.805867 90 
L 2409.276267 90 
L 2412.746667 90 
L 2416.217067 90 
L 2419.687467 90 
L 2423.157867 90 
L 2426.628267 90 
L 2430.098667 90 
L 2433.569067 90 
L 2437.039467 90 
L 2440.509867 90 
L 2443.66257 90 
L 2440.509867 91.077718 
L 2437.039467 92.289016 
L 2433.569067 93.30323 
L 2430.098667 93.933659 
L 2426.628267 94.08294 
L 2423.157867 93.762214 
L 2419.687467 93.080952 
L 2416.217067 92.217917 
L 2412.746667 91.380091 
L 2409.276267 90.75269 
L 2405.805867 90.446313 
L 2402.335467 90.45556 
L 2398.865067 90.649663 
L 2395.394667 90.811161 
L 2391.924267 90.720456 
L 2388.453867 90.258584 
z
" style="fill:#3333b2;stroke:#3333b2;"/>
    <path clip-path="url(#pfa371c25fd)" d="M 2514.137915 90 
L 2516.858667 90 
L 2520.329067 90 
L 2523.799467 90 
L 2527.269867 90 
L 2530.740267 90 
L 2534.210667 90 
L 2537.681067 90 
L 2541.151467 90 
L 2544.621867 90 
L 2548.092267 90 
L 2551.562667 90 
L 2552.587808 90 
L 2551.562667 90.230921 
L 2548.092267 91.240848 
L 2544.621867 92.23471 
L 2541.151467 92.987765 
L 2537.681067 93.391637 
L 2534.210667 93.47061 
L 2530.740267 93.317787 
L 2527.269867 93.003547 
L 2523.799467 92.523872 
L 2520.329067 91.824335 
L 2516.858667 90.878543 
z
" style="fill:#3333b2;stroke:#3333b2;"/>
    <path clip-path="url(#pfa371c25fd)" d="M 2583.109196 90 
L 2586.266667 90 
L 2589.737067 90 
L 2593.207467 90 
L 2596.677867 90 
L 2600.148267 90 
L 2603.618667 90 
L 2607.089067 90 
L 2609.837763 90 
L 2607.089067 91.842664 
L 2603.618667 93.758541 
L 2600.148267 94.879208 
L 2596.677867 94.989742 
L 2593.207467 94.151774 
L 2589.737067 92.703495 
L 2586.266667 91.134471 
z
" style="fill:#3333b2;stroke:#3333b2;"/>
    <path clip-path="url(#pfa371c25fd)" d="M 2664.289556 90 
L 2666.085867 90 
L 2669.556267 90 
L 2673.026667 90 
L 2676.497067 90 
L 2679.967467 90 
L 2683.437867 90 
L 2686.908267 90 
L 2690.378667 90 
L 2693.849067 90 
L 2697.319467 90 
L 2700.789867 90 
L 2704.260267 90 
L 2707.730667 90 
L 2711.201067 90 
L 2714.671467 90 
L 2718.141867 90 
L 2721.612267 90 
L 2724.960403 90 
L 2721.612267 91.435047 
L 2718.141867 92.77384 
L 2714.671467 93.902006 
L 2711.201067 94.806075 
L 2707.730667 95.480543 
L 2704.260267 95.910851 
L 2700.789867 96.086485 
L 2697.319467 96.026597 
L 2693.849067 95.792161 
L 2690.378667 95.46869 
L 2686.908267 95.124406 
L 2683.437867 94.768177 
L 2679.967467 94.337226 
L 2676.497067 93.730472 
L 2673.026667 92.874821 
L 2669.556267 91.786449 
L 2666.085867 90.586246 
z
" style="fill:#3333b2;stroke:#3333b2;"/>
    <path clip-path="url(#pfa371c25fd)" d="M 2794.978361 90 
L 2797.961067 90 
L 2801.431467 90 
L 2804.901867 90 
L 2808.372267 90 
L 2811.842667 90 
L 2815.313067 90 
L 2818.783467 90 
L 2822.253867 90 
L 2825.724267 90 
L 2826.514943 90 
L 2825.724267 90.23135 
L 2822.253867 91.250279 
L 2818.783467 92.04654 
L 2815.313067 92.490002 
L 2811.842667 92.559567 
L 2808.372267 92.320232 
L 2804.901867 91.875461 
L 2801.431467 91.312443 
L 2797.961067 90.661981 
z
" style="fill:#3333b2;stroke:#3333b2;"/>
    <path clip-path="url(#pfa371c25fd)" d="M 2844.035123 90 
L 2846.546667 90 
L 2850.017067 90 
L 2853.487467 90 
L 2856.957867 90 
L 2860.428267 90 
L 2863.898667 90 
L 2867.369067 90 
L 2870.839467 90 
L 2874.309867 90 
L 2877.780267 90 
L 2881.250667 90 
L 2884.721067 90 
L 2888.191467 90 
L 2891.661867 90 
L 2895.132267 90 
L 2898.602667 90 
L 2902.073067 90 
L 2905.543467 90 
L 2909.013867 90 
L 2912.484267 90 
L 2915.954667 90 
L 2919.425067 90 
L 2922.895467 90 
L 2926.365867 90 
L 2929.836267 90 
L 2932.865389 90 
L 2929.836267 90.655343 
L 2926.365867 91.248365 
L 2922.895467 91.528695 
L 2919.425067 91.457935 
L 2915.954667 91.137071 
L 2912.484267 90.762845 
L 2909.013867 90.537604 
L 2905.543467 90.578583 
L 2902.073067 90.872259 
L 2898.602667 91.293936 
L 2895.132267 91.677802 
L 2891.661867 91.898755 
L 2888.191467 91.926405 
L 2884.721067 91.831181 
L 2881.250667 91.747794 
L 2877.780267 91.817141 
L 2874.309867 92.129163 
L 2870.839467 92.682539 
L 2867.369067 93.371083 
L 2863.898667 94.002728 
L 2860.428267 94.350715 
L 2856.957867 94.225931 
L 2853.487467 93.548475 
L 2850.017067 92.391945 
L 2846.546667 90.979457 
z
" style="fill:#3333b2;stroke:#3333b2;"/>
    <path clip-path="url(#pfa371c25fd)" d="M 2956.658789 90 
L 2957.599467 90 
L 2961.069867 90 
L 2964.540267 90 
L 2968.010667 90 
L 2971.481067 90 
L 2972.178831 90 
L 2971.481067 90.24944 
L 2968.010667 90.985933 
L 2964.540267 91.132847 
L 2961.069867 90.795277 
L 2957.599467 90.182361 
z
" style="fill:#3333b2;stroke:#3333b2;"/>
    <path clip-path="url(#pfa371c25fd)" d="M 3001.223588 90 
L 3002.714667 90 
L 3006.185067 90 
L 3009.655467 90 
L 3013.125867 90 
L 3015.255249 90 
L 3013.125867 90.341009 
L 3009.655467 90.758947 
L 3006.185067 90.839497 
L 3002.714667 90.414346 
z
" style="fill:#3333b2;stroke:#3333b2;"/>
    <path clip-path="url(#pfa371c25fd)" d="M 3060.886168 90 
L 3061.711467 90 
L 3065.181867 90 
L 3068.652267 90 
L 3072.122667 90 
L 3075.593067 90 
L 3079.063467 90 
L 3082.533867 90 
L 3086.004267 90 
L 3089.474667 90 
L 3092.945067 90 
L 3096.415467 90 
L 3097.9998 90 
L 3096.415467 90.240182 
L 3092.945067 91.519486 
L 3089.474667 93.364615 
L 3086.004267 95.358577 
L 3082.533867 96.969233 
L 3079.063467 97.725078 
L 3075.593067 97.385617 
L 3072.122667 96.033897 
L 3068.652267 94.047776 
L 3065.181867 91.957781 
L 3061.711467 90.249988 
z
" style="fill:#3333b2;stroke:#3333b2;"/>
    <path clip-path="url(#pfa371c25fd)" d="M 3104.064837 90 
L 3106.826667 90 
L 3110.297067 90 
L 3113.767467 90 
L 3117.237867 90 
L 3120.708267 90 
L 3124.178667 90 
L 3126.027116 90 
L 3124.178667 90.511901 
L 3120.708267 91.303411 
L 3117.237867 91.717987 
L 3113.767467 91.65724 
L 3110.297067 91.174983 
L 3106.826667 90.477188 
z
" style="fill:#3333b2;stroke:#3333b2;"/>
    <path clip-path="url(#pfa371c25fd)" d="M 3217.607319 90 
L 3217.879467 90 
L 3221.349867 90 
L 3224.820267 90 
L 3228.290667 90 
L 3231.761067 90 
L 3232.610559 90 
L 3231.761067 90.246116 
L 3228.290667 90.850415 
L 3224.820267 90.940538 
L 3221.349867 90.595637 
L 3217.879467 90.040013 
z
" style="fill:#3333b2;stroke:#3333b2;"/>
    <path clip-path="url(#pfa371c25fd)" d="M 3269.890367 90 
L 3269.935467 90 
L 3273.405867 90 
L 3276.876267 90 
L 3280.346667 90 
L 3283.817067 90 
L 3287.287467 90 
L 3290.757867 90 
L 3294.228267 90 
L 3297.698667 90 
L 3301.169067 90 
L 3304.639467 90 
L 3308.109867 90 
L 3311.580267 90 
L 3315.050667 90 
L 3318.521067 90 
L 3321.991467 90 
L 3325.461867 90 
L 3328.932267 90 
L 3332.402667 90 
L 3335.873067 90 
L 3339.343467 90 
L 3342.813867 90 
L 3346.284267 90 
L 3349.754667 90 
L 3350.282359 90 
L 3349.754667 90.191725 
L 3346.284267 91.663853 
L 3342.813867 93.291217 
L 3339.343467 94.88636 
L 3335.873067 96.162031 
L 3332.402667 96.829157 
L 3328.932267 96.720084 
L 3325.461867 95.877895 
L 3321.991467 94.564838 
L 3318.521067 93.179346 
L 3315.050667 92.114976 
L 3311.580267 91.623543 
L 3308.109867 91.742092 
L 3304.639467 92.309533 
L 3301.169067 93.05388 
L 3297.698667 93.701698 
L 3294.228267 94.061724 
L 3290.757867 94.058074 
L 3287.287467 93.716417 
L 3283.817067 93.123579 
L 3280.346667 92.383423 
L 3276.876267 91.584481 
L 3273.405867 90.784585 
L 3269.935467 90.009723 
z
" style="fill:#3333b2;stroke:#3333b2;"/>
    <path clip-path="url(#pfa371c25fd)" d="M 3411.108212 90 
L 3412.221867 90 
L 3415.692267 90 
L 3419.162667 90 
L 3422.633067 90 
L 3426.103467 90 
L 3429.573867 90 
L 3433.044267 90 
L 3436.514667 90 
L 3439.985067 90 
L 3443.455467 90 
L 3446.925867 90 
L 3450.396267 90 
L 3453.866667 90 
L 3457.337067 90 
L 3460.807467 90 
L 3464.277867 90 
L 3467.748267 90 
L 3471.218667 90 
L 3474.689067 90 
L 3478.159467 90 
L 3481.629867 90 
L 3485.100267 90 
L 3488.570667 90 
L 3492.041067 90 
L 3495.511467 90 
L 3498.981867 90 
L 3502.452267 90 
L 3505.922667 90 
L 3509.393067 90 
L 3511.477098 90 
L 3509.393067 90.567428 
L 3505.922667 91.850335 
L 3502.452267 93.344876 
L 3498.981867 94.84496 
L 3495.511467 96.1267 
L 3492.041067 96.995422 
L 3488.570667 97.31257 
L 3485.100267 97.014228 
L 3481.629867 96.131393 
L 3478.159467 94.805826 
L 3474.689067 93.281329 
L 3471.218667 91.854316 
L 3467.748267 90.790302 
L 3464.277867 90.23894 
L 3460.807467 90.189119 
L 3457.337067 90.488482 
L 3453.866667 90.918306 
L 3450.396267 91.286213 
L 3446.925867 91.492755 
L 3443.455467 91.545357 
L 3439.985067 91.522033 
L 3436.514667 91.510873 
L 3433.044267 91.558225 
L 3429.573867 91.647938 
L 3426.103467 91.713967 
L 3422.633067 91.671425 
L 3419.162667 91.446201 
L 3415.692267 90.991758 
L 3412.221867 90.29466 
z
" style="fill:#3333b2;stroke:#3333b2;"/>
    <path clip-path="url(#pfa371c25fd)" d="M 3588.619718 90 
L 3589.212267 90 
L 3592.682667 90 
L 3596.153067 90 
L 3599.623467 90 
L 3603.093867 90 
L 3606.564267 90 
L 3610.034667 90 
L 3613.505067 90 
L 3616.975467 90 
L 3620.445867 90 
L 3623.916267 90 
L 3627.386667 90 
L 3630.857067 90 
L 3634.327467 90 
L 3637.797867 90 
L 3641.268267 90 
L 3644.738667 90 
L 3648.209067 90 
L 3651.679467 90 
L 3655.149867 90 
L 3658.620267 90 
L 3662.090667 90 
L 3665.561067 90 
L 3669.031467 90 
L 3672.501867 90 
L 3674.073328 90 
L 3672.501867 90.450917 
L 3669.031467 91.219639 
L 3665.561067 91.779689 
L 3662.090667 92.146837 
L 3658.620267 92.353367 
L 3655.149867 92.464681 
L 3651.679467 92.565313 
L 3648.209067 92.713289 
L 3644.738667 92.89329 
L 3641.268267 93.009443 
L 3637.797867 92.937352 
L 3634.327467 92.614536 
L 3630.857067 92.115954 
L 3627.386667 91.6605 
L 3623.916267 91.529643 
L 3620.445867 91.931413 
L 3616.975467 92.879491 
L 3613.505067 94.154036 
L 3610.034667 95.369025 
L 3606.564267 96.115433 
L 3603.093867 96.112757 
L 3599.623467 95.302036 
L 3596.153067 93.846973 
L 3592.682667 92.054794 
L 3589.212267 90.261269 
z
" style="fill:#3333b2;stroke:#3333b2;"/>
    <path clip-path="url(#pfa371c25fd)" d="M 3723.276343 90 
L 3724.557867 90 
L 3728.028267 90 
L 3731.498667 90 
L 3734.969067 90 
L 3738.439467 90 
L 3741.909867 90 
L 3745.380267 90 
L 3748.850667 90 
L 3752.321067 90 
L 3755.791467 90 
L 3759.261867 90 
L 3762.732267 90 
L 3766.202667 90 
L 3769.673067 90 
L 3773.143467 90 
L 3776.613867 90 
L 3780.084267 90 
L 3781.978944 90 
L 3780.084267 90.844145 
L 3776.613867 92.130771 
L 3773.143467 93.134647 
L 3769.673067 93.89068 
L 3766.202667 94.475919 
L 3762.732267 94.997709 
L 3759.261867 95.574035 
L 3755.791467 96.294019 
L 3752.321067 97.163546 
L 3748.850667 98.063046 
L 3745.380267 98.75228 
L 3741.909867 98.939542 
L 3738.439467 98.396735 
L 3734.969067 97.068684 
L 3731.498667 95.117496 
L 3728.028267 92.870167 
L 3724.557867 90.688298 
z
" style="fill:#3333b2;stroke:#3333b2;"/>
    <path clip-path="url(#pfa371c25fd)" d="M 3843.540835 90 
L 3846.021867 90 
L 3849.492267 90 
L 3852.962667 90 
L 3856.433067 90 
L 3859.903467 90 
L 3863.373867 90 
L 3866.844267 90 
L 3870.314667 90 
L 3873.785067 90 
L 3877.255467 90 
L 3880.725867 90 
L 3884.196267 90 
L 3887.666667 90 
L 3891.137067 90 
L 3894.607467 90 
L 3898.077867 90 
L 3901.548267 90 
L 3905.018667 90 
L 3907.934694 90 
L 3905.018667 90.446069 
L 3901.548267 91.011574 
L 3898.077867 91.509664 
L 3894.607467 91.852291 
L 3891.137067 91.985209 
L 3887.666667 91.899276 
L 3884.196267 91.630297 
L 3880.725867 91.248592 
L 3877.255467 90.842087 
L 3873.785067 90.497572 
L 3870.314667 90.283819 
L 3866.844267 90.237905 
L 3863.373867 90.354466 
L 3859.903467 90.579341 
L 3856.433067 90.813312 
L 3852.962667 90.932876 
L 3849.492267 90.828333 
L 3846.021867 90.447153 
z
" style="fill:#3333b2;stroke:#3333b2;"/>
    <path clip-path="url(#pfa371c25fd)" d="M 3925.035064 90 
L 3925.841067 90 
L 3929.311467 90 
L 3932.781867 90 
L 3936.252267 90 
L 3939.722667 90 
L 3943.193067 90 
L 3946.663467 90 
L 3950.133867 90 
L 3953.604267 90 
L 3954.123875 90 
L 3953.604267 90.213003 
L 3950.133867 91.411137 
L 3946.663467 92.219223 
L 3943.193067 92.570203 
L 3939.722667 92.489583 
L 3936.252267 92.07142 
L 3932.781867 91.446629 
L 3929.311467 90.753112 
L 3925.841067 90.113761 
z
" style="fill:#3333b2;stroke:#3333b2;"/>
    <path clip-path="url(#pfa371c25fd)" d="M 3984.482882 90 
L 3984.837867 90 
L 3988.308267 90 
L 3991.778667 90 
L 3995.249067 90 
L 3998.719467 90 
L 4002.189867 90 
L 4005.660267 90 
L 4009.130667 90 
L 4012.601067 90 
L 4016.071467 90 
L 4019.541867 90 
L 4023.012267 90 
L 4026.482667 90 
L 4029.953067 90 
L 4033.423467 90 
L 4036.893867 90 
L 4040.364267 90 
L 4043.834667 90 
L 4047.305067 90 
L 4050.775467 90 
L 4054.245867 90 
L 4057.716267 90 
L 4059.265206 90 
L 4057.716267 90.785999 
L 4054.245867 91.930576 
L 4050.775467 92.347626 
L 4047.305067 92.182219 
L 4043.834667 91.762915 
L 4040.364267 91.460257 
L 4036.893867 91.538554 
L 4033.423467 92.062213 
L 4029.953067 92.889484 
L 4026.482667 93.747177 
L 4023.012267 94.348741 
L 4019.541867 94.506045 
L 4016.071467 94.193104 
L 4012.601067 93.542123 
L 4009.130667 92.779229 
L 4005.660267 92.129242 
L 4002.189867 91.727728 
L 3998.719467 91.572373 
L 3995.249067 91.528957 
L 3991.778667 91.387907 
L 3988.308267 90.951312 
L 3984.837867 90.119935 
z
" style="fill:#3333b2;stroke:#3333b2;"/>
    <path clip-path="url(#pfa371c25fd)" d="M 4123.885753 90 
L 4127.124267 90 
L 4130.594667 90 
L 4134.065067 90 
L 4136.925636 90 
L 4134.065067 90.165841 
L 4130.594667 90.322987 
L 4127.124267 90.290815 
z
" style="fill:#3333b2;stroke:#3333b2;"/>
    <path clip-path="url(#pfa371c25fd)" d="M 4143.280041 90 
L 4144.476267 90 
L 4147.946667 90 
L 4151.417067 90 
L 4154.887467 90 
L 4158.357867 90 
L 4161.828267 90 
L 4165.298667 90 
L 4168.769067 90 
L 4172.239467 90 
L 4175.709867 90 
L 4175.709867 90 
L 4175.709867 93.786789 
L 4172.239467 94.158572 
L 4168.769067 94.457859 
L 4165.298667 94.477136 
L 4161.828267 94.102883 
L 4158.357867 93.3567 
L 4154.887467 92.382032 
L 4151.417067 91.387175 
L 4147.946667 90.57111 
L 4144.476267 90.06137 
z
" style="fill:#3333b2;stroke:#3333b2;"/>
   </g>
   <g id="matplotlib.axis_1">
    <g id="xtick_1"/>
    <g id="xtick_2"/>
    <g id="xtick_3"/>
    <g id="xtick_4"/>
    <g id="xtick_5"/>
    <g id="xtick_6"/>
    <g id="xtick_7"/>
    <g id="xtick_8"/>
    <g id="xtick_9"/>
    <g id="xtick_10"/>
    <g id="xtick_11"/>
    <g id="xtick_12"/>
    <g id="xtick_13"/>
    <g id="xtick_14"/>
    <g id="xtick_15"/>
    <g id="xtick_16"/>
    <g id="xtick_17"/>
    <g id="xtick_18"/>
    <g id="xtick_19"/>
    <g id="xtick_20"/>
    <g id="xtick_21"/>
    <g id="xtick_22"/>
    <g id="xtick_23"/>
    <g id="xtick_24"/>
    <g id="xtick_25"/>
    <g id="xtick_26"/>
    <g id="xtick_27"/>
    <g id="xtick_28"/>
    <g id="xtick_29"/>
    <g id="xtick_30"/>
    <g id="xtick_31"/>
    <g id="xtick_32"/>
    <g id="xtick_33"/>
    <g id="xtick_34"/>
    <g id="xtick_35"/>
    <g id="xtick_36"/>
    <g id="xtick_37"/>
    <g id="xtick_38"/>
    <g id="xtick_39"/>
    <g id="xtick_40"/>
    <g id="xtick_41"/>
   </g>
   <g id="matplotlib.axis_2">
    <g id="ytick_1"/>
    <g id="ytick_2"/>
    <g id="ytick_3"/>
    <g id="ytick_4"/>
    <g id="ytick_5"/>
    <g id="ytick_6"/>
    <g id="ytick_7"/>
    <g id="ytick_8"/>
    <g id="ytick_9"/>
    <g id="ytick_10"/>
    <g id="ytick_11"/>
    <g id="ytick_12"/>
    <g id="ytick_13"/>
    <g id="ytick_14"/>
    <g id="ytick_15"/>
    <g id="ytick_16"/>
    <g id="ytick_17"/>
   </g>
   <g id="line2d_1">
    <path clip-path="url(#pfa371c25fd)" d="M 11.229867 24.782853 
L 14.700267 19.963636 
L 18.170667 23.750036 
L 21.641067 34.948167 
L 28.581867 65.774841 
L 32.052267 78.047135 
L 35.522667 85.514701 
L 38.993067 88.461649 
L 42.463467 88.452512 
L 45.933867 87.374205 
L 49.404267 86.6261 
L 52.874667 86.771744 
L 56.345067 87.66384 
L 59.815467 88.823735 
L 63.285867 89.80573 
L 66.756267 90.385664 
L 70.226667 90.573404 
L 77.167467 90.594636 
L 80.637867 91.074981 
L 84.108267 92.336424 
L 87.578667 94.560209 
L 94.519467 100.703381 
L 97.989867 102.933071 
L 101.460267 103.141127 
L 104.930667 100.555929 
L 108.401067 95.092926 
L 111.871467 87.462908 
L 115.341867 78.999808 
L 118.812267 71.290583 
L 122.282667 65.756341 
L 125.753067 63.319326 
L 129.223467 64.227599 
L 132.693867 68.047472 
L 136.164267 73.800466 
L 139.634667 80.210814 
L 143.105067 86.018971 
L 146.575467 90.295067 
L 150.045867 92.667094 
L 153.516267 93.386182 
L 160.457067 93.035882 
L 163.927467 93.681245 
L 167.397867 95.432598 
L 174.338667 100.554386 
L 177.809067 102.17242 
L 181.279467 102.136657 
L 184.749867 100.332886 
L 191.690667 94.229298 
L 195.161067 92.131348 
L 198.631467 91.733959 
L 202.101867 92.945754 
L 205.572267 94.892935 
L 209.042667 96.286566 
L 212.513067 96.016328 
L 215.983467 93.698014 
L 222.924267 85.948404 
L 226.394667 83.332908 
L 229.865067 83.096191 
L 233.335467 85.379223 
L 236.805867 89.375937 
L 240.276267 93.671544 
L 243.746667 96.801946 
L 247.217067 97.790094 
L 250.687467 96.449146 
L 254.157867 93.3644 
L 257.628267 89.610959 
L 261.098667 86.358254 
L 264.569067 84.519235 
L 268.039467 84.540557 
L 271.509867 86.353209 
L 274.980267 89.453968 
L 278.450667 93.074698 
L 281.921067 96.398236 
L 285.391467 98.775686 
L 288.861867 99.890508 
L 292.332267 99.817035 
L 295.802667 98.948418 
L 299.273067 97.815905 
L 302.743467 96.867384 
L 306.213867 96.294562 
L 313.154667 95.585142 
L 316.625067 94.720851 
L 320.095467 93.131931 
L 323.565867 90.800499 
L 333.977067 82.314015 
L 337.447467 80.37222 
L 340.917867 79.407753 
L 344.388267 79.48844 
L 347.858667 80.477986 
L 351.329067 82.080965 
L 358.269867 85.732817 
L 361.740267 87.285452 
L 365.210667 88.572675 
L 372.151467 90.846683 
L 375.621867 92.158903 
L 379.092267 93.70905 
L 386.033067 97.175676 
L 389.503467 98.644557 
L 392.973867 99.57174 
L 396.444267 99.751385 
L 399.914667 99.104039 
L 403.385067 97.682695 
L 406.855467 95.631201 
L 410.325867 93.124213 
L 417.266667 87.413707 
L 420.737067 84.590667 
L 424.207467 82.150807 
L 427.677867 80.441066 
L 431.148267 79.77146 
L 434.618667 80.289832 
L 438.089067 81.894487 
L 441.559467 84.242587 
L 445.029867 86.861629 
L 448.500267 89.313917 
L 451.970667 91.333781 
L 455.441067 92.871581 
L 458.911467 94.029053 
L 462.381867 94.928891 
L 465.852267 95.595291 
L 469.322667 95.913827 
L 472.793067 95.694562 
L 476.263467 94.805482 
L 479.733867 93.302327 
L 483.204267 91.477168 
L 486.674667 89.786878 
L 490.145067 88.686478 
L 493.615467 88.446143 
L 497.085867 89.041854 
L 504.026667 91.381451 
L 507.497067 92.243864 
L 510.967467 92.496405 
L 514.437867 92.103271 
L 517.908267 91.227589 
L 524.849067 89.176207 
L 528.319467 88.566378 
L 531.789867 88.493023 
L 535.260267 89.023113 
L 538.730667 90.110234 
L 542.201067 91.591917 
L 545.671467 93.200131 
L 549.141867 94.602215 
L 552.612267 95.482877 
L 556.082667 95.653028 
L 559.553067 95.141023 
L 566.493867 93.270225 
L 569.964267 92.708442 
L 573.434667 92.717353 
L 576.905067 93.217606 
L 583.845867 94.542572 
L 594.257067 95.81682 
L 597.727467 96.933834 
L 601.197867 98.698248 
L 608.138667 103.083299 
L 611.609067 104.792693 
L 615.079467 105.708605 
L 618.549867 105.74957 
L 622.020267 105.01092 
L 625.490667 103.641558 
L 628.961067 101.753081 
L 632.431467 99.423188 
L 639.372267 94.069655 
L 642.842667 91.68179 
L 646.313067 90.010711 
L 649.783467 89.299221 
L 653.253867 89.50661 
L 663.665067 91.793815 
L 667.135467 91.859638 
L 670.605867 91.48444 
L 677.546667 90.476494 
L 681.017067 90.247485 
L 687.957867 90.020293 
L 691.428267 89.565492 
L 694.898667 88.678574 
L 698.369067 87.400799 
L 705.309867 84.513427 
L 708.780267 83.462075 
L 708.780267 83.462075 
" style="fill:none;stroke:#000000;stroke-linecap:square;stroke-width:0.75;"/>
   </g>
  </g>
 </g>
 <defs>
  <clipPath id="pfa371c25fd">
   <rect height="154.08" width="694.08" x="12.96" y="12.96"/>
  </clipPath>
 </defs>
</svg>
