<svg xmlns="http://www.w3.org/2000/svg" viewBox="0 0 261.2 267.09"><defs><style>.a{fill:#008edd;}.b{fill:#f7931e;}</style></defs><path class="a" d="M75,87.17h0a3.93,3.93,0,0,1-3.68-2.62l-2.83-7.89a.48.48,0,0,0-.45-.32H63.8A8,8,0,0,1,56,70.22l-1.18-4.85-1.18,4.85a8,8,0,0,1-7.79,6.12H43.35a3,3,0,1,1,0-6h2.51a2,2,0,0,0,1.93-1.51l3.08-12.66a4.07,4.07,0,0,1,7.91,0L61.87,68.8a2,2,0,0,0,1.93,1.51H68a6.53,6.53,0,0,1,6.13,4.31l.92,2.58,1-2.69a6.54,6.54,0,0,1,6.08-4.2h1.34a3,3,0,0,1,0,6H82.17a.49.49,0,0,0-.44.31l-3,8A3.9,3.9,0,0,1,75,87.17Z"/><path class="b" d="M71.7,198.18a10.15,10.15,0,0,1-3.6-19.64l122.72-46.45a10.15,10.15,0,0,1,7.19,19L75.29,197.52A10.08,10.08,0,0,1,71.7,198.18Z"/><path class="a" d="M184.18,199.79a10.44,10.44,0,0,0,6.62-12.28,10.15,10.15,0,0,0-13.39-6.85l-67.89,25.7c-12.52,5-8.27,22.3-2,26.3,5.48,3.52,10.87-.62,10.87-5.84v-2.07Z"/><path class="a" d="M167.92,74.76a41.77,41.77,0,0,0-53.4-24.32L79.91,63.24A4.91,4.91,0,0,0,77,69.54c1.44,3.9,5.11,9,14.34,11.11a41.07,41.07,0,0,0,9.23.95c24.81,0,22.4-12.22,22.33-12.54a21.39,21.39,0,0,1,26,12.89,21.37,21.37,0,0,1-12.42,27.53L68.1,135.38a10.15,10.15,0,1,0,7.19,19l68.42-25.9a41.67,41.67,0,0,0,24.21-53.7Zm-63.26-5.82a3.55,3.55,0,1,1,3.55-3.55A3.55,3.55,0,0,1,104.66,68.94Z"/></svg>