<svg xmlns="http://www.w3.org/2000/svg" viewBox="0 0 1154.79 291.75"><defs><style>.a{fill:#008edd;}.b{fill:#f7931e;}</style></defs><path class="a" d="M822.64,117.08h-.07a6.77,6.77,0,0,1-6.36-4.52l-3.28-9.15a1.56,1.56,0,0,0-1.46-1h-6.72a11.93,11.93,0,0,1-11.63-9.13l-2.65-10.9-2.66,10.9a11.93,11.93,0,0,1-11.62,9.13h-4a11.94,11.94,0,0,1-11.6-9.06l-7.36-29.44-6.08,29a12,12,0,0,1-11.71,9.51H732.2a4,4,0,0,1,0-8h3.24a4,4,0,0,0,3.88-3.15l6.6-31.49a7.41,7.41,0,0,1,14.45-.27l8,31.91a4,4,0,0,0,3.84,3h4a4,4,0,0,0,3.85-3L785,71.21a5.68,5.68,0,0,1,11,0l4.91,20.15a3.94,3.94,0,0,0,3.85,3h6.72a9.6,9.6,0,0,1,9,6.33l2.2,6.14,2.39-6.3A9.61,9.61,0,0,1,834,94.38h2.13a3.94,3.94,0,0,0,3.85-3l2.34-9.8a4.87,4.87,0,0,1,9.48,0l2.34,9.8a3.94,3.94,0,0,0,3.85,3h4.3a4,4,0,0,1,0,8H858a11.93,11.93,0,0,1-10.93-7.09,11.91,11.91,0,0,1-10.93,7.09H834a1.57,1.57,0,0,0-1.45,1L829,112.68A6.75,6.75,0,0,1,822.64,117.08Z"/><path class="a" d="M364.31,99.15a33.58,33.58,0,0,1,15.07,12.53q5.25,8.16,5.25,19.37a35.13,35.13,0,0,1-5.25,19.31A33.47,33.47,0,0,1,364.31,163q-9.84,4.36-23.09,4.37h-23v19.95a9.47,9.47,0,0,1-9.47,9.47h0a9.47,9.47,0,0,1-9.47-9.47V94.78h42Q354.47,94.78,364.31,99.15Zm-5.17,46.91q6.41-5.25,6.4-15t-6.4-15q-6.42-5.25-18.8-5.24H318.2V151.3h22.14Q352.73,151.3,359.14,146.06Z"/><path class="a" d="M463.19,119a8,8,0,0,1,7.34,11.2L439,203q-5.1,12.67-12.38,17.84T409,226a36.24,36.24,0,0,1-11.51-1.89c-.71-.24-1.4-.49-2.06-.76a7.66,7.66,0,0,1-3.87-10.74h0a7.67,7.67,0,0,1,9.76-3.35l.32.14a18.94,18.94,0,0,0,7.21,1.45,12.41,12.41,0,0,0,7.94-2.47c2.09-1.66,4-4.42,5.75-8.31l1.31-3.06-29.07-66.88a8,8,0,0,1,7.35-11.2h1.42a8,8,0,0,1,7.37,4.88l22.4,52.66,22.54-52.68a8,8,0,0,1,7.37-4.86Z"/><path class="b" d="M566.35,144.6h0a9,9,0,0,1,9,9v31.68A56.79,56.79,0,0,1,557,194.86a70.53,70.53,0,0,1-21.56,3.35,58.26,58.26,0,0,1-28.12-6.77,50.39,50.39,0,0,1-19.66-18.72,51.53,51.53,0,0,1-7.14-26.95,51.51,51.51,0,0,1,7.14-27,50.27,50.27,0,0,1,19.74-18.72,58.81,58.81,0,0,1,28.33-6.77A61.78,61.78,0,0,1,559,97.55a47.8,47.8,0,0,1,9.87,5.37,8.93,8.93,0,0,1,1,13.64h0a7.83,7.83,0,0,1-10.07.79,38,38,0,0,0-23.2-7.42,39.72,39.72,0,0,0-19.15,4.52,32.83,32.83,0,0,0-13.11,12.67,36.45,36.45,0,0,0-4.74,18.65,35.84,35.84,0,0,0,4.74,18.35,33.87,33.87,0,0,0,13.11,12.82,38.39,38.39,0,0,0,19,4.66,41.12,41.12,0,0,0,21-5.24v-22.8A9,9,0,0,1,566.35,144.6Z"/><path class="b" d="M608.23,94.78h2.92a8,8,0,0,1,8,8v77.94h45.3a8,8,0,0,1,8,8h0a8,8,0,0,1-8,8H600.22v-94A8,8,0,0,1,608.23,94.78Z"/><path class="b" d="M697,94.78h0a9.47,9.47,0,0,1,9.47,9.47v83a9.47,9.47,0,0,1-9.47,9.47h0a9.47,9.47,0,0,1-9.47-9.47v-83A9.47,9.47,0,0,1,697,94.78Z"/><path class="b" d="M853.69,133.34q8.59,8.52,8.59,25.56v28.75a9.09,9.09,0,0,1-9.1,9.1h0a9.1,9.1,0,0,1-9.11-9.1V161.24q0-10.2-4.51-15.37t-13-5.17q-9.18,0-14.71,6T806.34,164v23.65a9.09,9.09,0,0,1-9.1,9.1h0a9.09,9.09,0,0,1-9.1-9.1V161.24q0-10.2-4.52-15.37t-13-5.17q-9.31,0-14.78,6T750.41,164v23.65a9.1,9.1,0,0,1-9.11,9.1h0a9.09,9.09,0,0,1-9.1-9.1V134.36a8.67,8.67,0,0,1,8.66-8.67h0a8.67,8.67,0,0,1,8.67,8.67v1.24a28.28,28.28,0,0,1,10.93-8A37,37,0,0,1,775,124.82a35.14,35.14,0,0,1,15.51,3.28,25.24,25.24,0,0,1,10.71,9.68,32.34,32.34,0,0,1,12.38-9.54,40.23,40.23,0,0,1,16.75-3.42Q845.1,124.82,853.69,133.34Z"/><path class="b" d="M963.81,188.67V189a7.79,7.79,0,0,1-7.79,7.79H887.34v-102H954a7.8,7.8,0,0,1,7.8,7.8v.29a7.8,7.8,0,0,1-7.8,7.79H906.27v26.51h41.45a7.8,7.8,0,0,1,7.79,7.8h0a7.79,7.79,0,0,1-7.79,7.79H906.27v28.11H956A7.79,7.79,0,0,1,963.81,188.67Z"/><path class="b" d="M1049.16,193.18l-18.34-26.29a37.57,37.57,0,0,1-3.93.15h-23V188.4a8.35,8.35,0,0,1-8.35,8.35h-2.23a8.35,8.35,0,0,1-8.35-8.35V94.78h42q13.26,0,23.09,4.37a33.67,33.67,0,0,1,15.08,12.53q5.24,8.16,5.24,19.37,0,11.52-5.61,19.82a33.4,33.4,0,0,1-16.09,12.38l14.25,20.36a8.35,8.35,0,0,1-6.84,13.14h0A8.34,8.34,0,0,1,1049.16,193.18Zm-4.35-77.13q-6.42-5.25-18.79-5.24h-22.15v40.64H1026q12.38,0,18.79-5.32t6.41-15.08Q1051.22,121.3,1044.81,116.05Z"/><path class="a" d="M96,92.12h0a3.91,3.91,0,0,1-3.68-2.61l-2.82-7.89A.48.48,0,0,0,89,81.3H84.8A8,8,0,0,1,77,75.18l-1.18-4.85-1.18,4.85a8,8,0,0,1-7.79,6.12H64.35a3,3,0,0,1,0-6h2.51a2,2,0,0,0,1.93-1.52L71.88,61.1a4.07,4.07,0,0,1,7.91,0l3.08,12.66a2,2,0,0,0,1.93,1.51H89a6.51,6.51,0,0,1,6.12,4.31l.93,2.58,1-2.69a6.53,6.53,0,0,1,6.08-4.2h1.33a3,3,0,1,1,0,6h-1.33a.49.49,0,0,0-.45.31l-3,8A3.9,3.9,0,0,1,96,92.12Z"/><path class="b" d="M92.7,203.14a10.15,10.15,0,0,1-3.59-19.64l122.72-46.45A10.15,10.15,0,0,1,219,156L96.29,202.48A10,10,0,0,1,92.7,203.14Z"/><path class="a" d="M205.19,204.75a10.43,10.43,0,0,0,6.61-12.29,10.14,10.14,0,0,0-13.39-6.84l-67.89,25.7c-12.51,5-8.27,22.29-2,26.3,5.48,3.52,10.87-.62,10.87-5.84v-2.07Z"/><path class="a" d="M188.92,79.72a41.76,41.76,0,0,0-53.4-24.32L100.91,68.2A4.92,4.92,0,0,0,98,74.5c1.44,3.9,5.12,9,14.34,11.11a41.82,41.82,0,0,0,9.24,1c24.81,0,22.4-12.22,22.33-12.55a21.35,21.35,0,0,1,13.62,40.43l-68.42,25.9A10.15,10.15,0,0,0,92.7,160a10,10,0,0,0,3.59-.66l68.43-25.9a41.65,41.65,0,0,0,24.2-53.7ZM125.67,73.9a3.55,3.55,0,1,1,3.55-3.55A3.55,3.55,0,0,1,125.67,73.9Z"/></svg>